%TF.GenerationSoftware,KiCad,Pcbnew,10.0.5*%
%TF.CreationDate,2026-08-27T04:19:54-05:00*%
%TF.ProjectId,USB-Dongle,5553422d-446f-46e6-976c-652e6b696361,rev?*%
%TF.SameCoordinates,Original*%
%TF.FileFunction,Legend,Bot*%
%TF.FilePolarity,Positive*%
%FSLAX46Y46*%
G04 Gerber Fmt 4.6, Leading zero omitted, Abs format (unit mm)*
G04 Created by KiCad (PCBNEW 10.0.5) date 2026-08-27 04:19:54*
%MOMM*%
%LPD*%
G01*
G04 APERTURE LIST*
%ADD10C,0.100000*%
%ADD11C,0.500000*%
%ADD12C,0.000000*%
G04 APERTURE END LIST*
D10*
X182576115Y-69468419D02*
X182576115Y-68468419D01*
X182576115Y-68468419D02*
X182338020Y-68468419D01*
X182338020Y-68468419D02*
X182195163Y-68516038D01*
X182195163Y-68516038D02*
X182099925Y-68611276D01*
X182099925Y-68611276D02*
X182052306Y-68706514D01*
X182052306Y-68706514D02*
X182004687Y-68896990D01*
X182004687Y-68896990D02*
X182004687Y-69039847D01*
X182004687Y-69039847D02*
X182052306Y-69230323D01*
X182052306Y-69230323D02*
X182099925Y-69325561D01*
X182099925Y-69325561D02*
X182195163Y-69420800D01*
X182195163Y-69420800D02*
X182338020Y-69468419D01*
X182338020Y-69468419D02*
X182576115Y-69468419D01*
X181385639Y-68468419D02*
X181195163Y-68468419D01*
X181195163Y-68468419D02*
X181099925Y-68516038D01*
X181099925Y-68516038D02*
X181004687Y-68611276D01*
X181004687Y-68611276D02*
X180957068Y-68801752D01*
X180957068Y-68801752D02*
X180957068Y-69135085D01*
X180957068Y-69135085D02*
X181004687Y-69325561D01*
X181004687Y-69325561D02*
X181099925Y-69420800D01*
X181099925Y-69420800D02*
X181195163Y-69468419D01*
X181195163Y-69468419D02*
X181385639Y-69468419D01*
X181385639Y-69468419D02*
X181480877Y-69420800D01*
X181480877Y-69420800D02*
X181576115Y-69325561D01*
X181576115Y-69325561D02*
X181623734Y-69135085D01*
X181623734Y-69135085D02*
X181623734Y-68801752D01*
X181623734Y-68801752D02*
X181576115Y-68611276D01*
X181576115Y-68611276D02*
X181480877Y-68516038D01*
X181480877Y-68516038D02*
X181385639Y-68468419D01*
X180528496Y-69468419D02*
X180528496Y-68468419D01*
X180528496Y-68468419D02*
X179957068Y-69468419D01*
X179957068Y-69468419D02*
X179957068Y-68468419D01*
X178957068Y-68516038D02*
X179052306Y-68468419D01*
X179052306Y-68468419D02*
X179195163Y-68468419D01*
X179195163Y-68468419D02*
X179338020Y-68516038D01*
X179338020Y-68516038D02*
X179433258Y-68611276D01*
X179433258Y-68611276D02*
X179480877Y-68706514D01*
X179480877Y-68706514D02*
X179528496Y-68896990D01*
X179528496Y-68896990D02*
X179528496Y-69039847D01*
X179528496Y-69039847D02*
X179480877Y-69230323D01*
X179480877Y-69230323D02*
X179433258Y-69325561D01*
X179433258Y-69325561D02*
X179338020Y-69420800D01*
X179338020Y-69420800D02*
X179195163Y-69468419D01*
X179195163Y-69468419D02*
X179099925Y-69468419D01*
X179099925Y-69468419D02*
X178957068Y-69420800D01*
X178957068Y-69420800D02*
X178909449Y-69373180D01*
X178909449Y-69373180D02*
X178909449Y-69039847D01*
X178909449Y-69039847D02*
X179099925Y-69039847D01*
X178004687Y-69468419D02*
X178480877Y-69468419D01*
X178480877Y-69468419D02*
X178480877Y-68468419D01*
X177671353Y-68944609D02*
X177338020Y-68944609D01*
X177195163Y-69468419D02*
X177671353Y-69468419D01*
X177671353Y-69468419D02*
X177671353Y-68468419D01*
X177671353Y-68468419D02*
X177195163Y-68468419D01*
X176766591Y-69373180D02*
X176718972Y-69420800D01*
X176718972Y-69420800D02*
X176766591Y-69468419D01*
X176766591Y-69468419D02*
X176814210Y-69420800D01*
X176814210Y-69420800D02*
X176766591Y-69373180D01*
X176766591Y-69373180D02*
X176766591Y-69468419D01*
X176290401Y-69468419D02*
X176290401Y-68468419D01*
X176290401Y-68944609D02*
X175718973Y-68944609D01*
X175718973Y-69468419D02*
X175718973Y-68468419D01*
X175290401Y-69182704D02*
X174814211Y-69182704D01*
X175385639Y-69468419D02*
X175052306Y-68468419D01*
X175052306Y-68468419D02*
X174718973Y-69468419D01*
X173814211Y-69373180D02*
X173861830Y-69420800D01*
X173861830Y-69420800D02*
X174004687Y-69468419D01*
X174004687Y-69468419D02*
X174099925Y-69468419D01*
X174099925Y-69468419D02*
X174242782Y-69420800D01*
X174242782Y-69420800D02*
X174338020Y-69325561D01*
X174338020Y-69325561D02*
X174385639Y-69230323D01*
X174385639Y-69230323D02*
X174433258Y-69039847D01*
X174433258Y-69039847D02*
X174433258Y-68896990D01*
X174433258Y-68896990D02*
X174385639Y-68706514D01*
X174385639Y-68706514D02*
X174338020Y-68611276D01*
X174338020Y-68611276D02*
X174242782Y-68516038D01*
X174242782Y-68516038D02*
X174099925Y-68468419D01*
X174099925Y-68468419D02*
X174004687Y-68468419D01*
X174004687Y-68468419D02*
X173861830Y-68516038D01*
X173861830Y-68516038D02*
X173814211Y-68563657D01*
X173385639Y-69468419D02*
X173385639Y-68468419D01*
X172814211Y-69468419D02*
X173242782Y-68896990D01*
X172814211Y-68468419D02*
X173385639Y-69039847D01*
X171814211Y-69373180D02*
X171861830Y-69420800D01*
X171861830Y-69420800D02*
X172004687Y-69468419D01*
X172004687Y-69468419D02*
X172099925Y-69468419D01*
X172099925Y-69468419D02*
X172242782Y-69420800D01*
X172242782Y-69420800D02*
X172338020Y-69325561D01*
X172338020Y-69325561D02*
X172385639Y-69230323D01*
X172385639Y-69230323D02*
X172433258Y-69039847D01*
X172433258Y-69039847D02*
X172433258Y-68896990D01*
X172433258Y-68896990D02*
X172385639Y-68706514D01*
X172385639Y-68706514D02*
X172338020Y-68611276D01*
X172338020Y-68611276D02*
X172242782Y-68516038D01*
X172242782Y-68516038D02*
X172099925Y-68468419D01*
X172099925Y-68468419D02*
X172004687Y-68468419D01*
X172004687Y-68468419D02*
X171861830Y-68516038D01*
X171861830Y-68516038D02*
X171814211Y-68563657D01*
X170909449Y-69468419D02*
X171385639Y-69468419D01*
X171385639Y-69468419D02*
X171385639Y-68468419D01*
X170576115Y-68468419D02*
X170576115Y-69277942D01*
X170576115Y-69277942D02*
X170528496Y-69373180D01*
X170528496Y-69373180D02*
X170480877Y-69420800D01*
X170480877Y-69420800D02*
X170385639Y-69468419D01*
X170385639Y-69468419D02*
X170195163Y-69468419D01*
X170195163Y-69468419D02*
X170099925Y-69420800D01*
X170099925Y-69420800D02*
X170052306Y-69373180D01*
X170052306Y-69373180D02*
X170004687Y-69277942D01*
X170004687Y-69277942D02*
X170004687Y-68468419D01*
X169195163Y-68944609D02*
X169052306Y-68992228D01*
X169052306Y-68992228D02*
X169004687Y-69039847D01*
X169004687Y-69039847D02*
X168957068Y-69135085D01*
X168957068Y-69135085D02*
X168957068Y-69277942D01*
X168957068Y-69277942D02*
X169004687Y-69373180D01*
X169004687Y-69373180D02*
X169052306Y-69420800D01*
X169052306Y-69420800D02*
X169147544Y-69468419D01*
X169147544Y-69468419D02*
X169528496Y-69468419D01*
X169528496Y-69468419D02*
X169528496Y-68468419D01*
X169528496Y-68468419D02*
X169195163Y-68468419D01*
X169195163Y-68468419D02*
X169099925Y-68516038D01*
X169099925Y-68516038D02*
X169052306Y-68563657D01*
X169052306Y-68563657D02*
X169004687Y-68658895D01*
X169004687Y-68658895D02*
X169004687Y-68754133D01*
X169004687Y-68754133D02*
X169052306Y-68849371D01*
X169052306Y-68849371D02*
X169099925Y-68896990D01*
X169099925Y-68896990D02*
X169195163Y-68944609D01*
X169195163Y-68944609D02*
X169528496Y-68944609D01*
D11*
X180302047Y-42985042D02*
X180302047Y-44413613D01*
X182802047Y-43699327D02*
X180302047Y-43699327D01*
X180302047Y-45723137D02*
X180302047Y-46199328D01*
X180302047Y-46199328D02*
X180421095Y-46437423D01*
X180421095Y-46437423D02*
X180659190Y-46675518D01*
X180659190Y-46675518D02*
X181135380Y-46794566D01*
X181135380Y-46794566D02*
X181968714Y-46794566D01*
X181968714Y-46794566D02*
X182444904Y-46675518D01*
X182444904Y-46675518D02*
X182683000Y-46437423D01*
X182683000Y-46437423D02*
X182802047Y-46199328D01*
X182802047Y-46199328D02*
X182802047Y-45723137D01*
X182802047Y-45723137D02*
X182683000Y-45485042D01*
X182683000Y-45485042D02*
X182444904Y-45246947D01*
X182444904Y-45246947D02*
X181968714Y-45127899D01*
X181968714Y-45127899D02*
X181135380Y-45127899D01*
X181135380Y-45127899D02*
X180659190Y-45246947D01*
X180659190Y-45246947D02*
X180421095Y-45485042D01*
X180421095Y-45485042D02*
X180302047Y-45723137D01*
X182802047Y-47865995D02*
X180302047Y-47865995D01*
X180302047Y-47865995D02*
X182802047Y-49294566D01*
X182802047Y-49294566D02*
X180302047Y-49294566D01*
X181611571Y-50961233D02*
X182802047Y-50961233D01*
X180302047Y-50127900D02*
X181611571Y-50961233D01*
X181611571Y-50961233D02*
X180302047Y-51794566D01*
D12*
%TO.C,G\u002A\u002A\u002A*%
G36*
X169390505Y-44089949D02*
G01*
X169390505Y-45759279D01*
X169224791Y-45759279D01*
X169109088Y-45737479D01*
X169024171Y-45668317D01*
X168983385Y-45621709D01*
X168861131Y-45610864D01*
X168738886Y-45598100D01*
X168571013Y-45469589D01*
X168526838Y-45426623D01*
X168307298Y-45269274D01*
X168012436Y-45109266D01*
X167683142Y-44965074D01*
X167360307Y-44855177D01*
X167084823Y-44798051D01*
X167040382Y-44794373D01*
X166726174Y-44804471D01*
X166384135Y-44862865D01*
X166066966Y-44957837D01*
X165827364Y-45077667D01*
X165708524Y-45148986D01*
X165568167Y-45174025D01*
X165488102Y-45083914D01*
X165462670Y-44875516D01*
X165457633Y-44716998D01*
X165422362Y-44607956D01*
X165331304Y-44600657D01*
X165159200Y-44678721D01*
X164961079Y-44757178D01*
X164741267Y-44757489D01*
X164501095Y-44649553D01*
X164341579Y-44507395D01*
X164225093Y-44272726D01*
X164202502Y-44008431D01*
X164275581Y-43750518D01*
X164446108Y-43534993D01*
X164542292Y-43486907D01*
X164756806Y-43450008D01*
X165018952Y-43453616D01*
X165282645Y-43499674D01*
X165335948Y-43513555D01*
X165423281Y-43517642D01*
X165457056Y-43451477D01*
X165462670Y-43284737D01*
X165464147Y-43232062D01*
X165490976Y-43071302D01*
X165541824Y-42994320D01*
X165630856Y-43007273D01*
X165799828Y-43069647D01*
X166008951Y-43168029D01*
X166184327Y-43253188D01*
X166389224Y-43325889D01*
X166606600Y-43359720D01*
X166895390Y-43367975D01*
X167103323Y-43364749D01*
X167300906Y-43345917D01*
X167482323Y-43299628D01*
X167691252Y-43214093D01*
X167971370Y-43077519D01*
X168122310Y-42998570D01*
X168356138Y-42862954D01*
X168530352Y-42744715D01*
X168615438Y-42662855D01*
X168685967Y-42584738D01*
X168839857Y-42568677D01*
X168945282Y-42572508D01*
X168997722Y-42509737D01*
X169044067Y-42447331D01*
X169194114Y-42420619D01*
X169390505Y-42420619D01*
X169390505Y-44089949D01*
G37*
G36*
X169390505Y-62005668D02*
G01*
X169390505Y-63696392D01*
X169224791Y-63696392D01*
X169109260Y-63675163D01*
X169025119Y-63607901D01*
X168974778Y-63558376D01*
X168836577Y-63548961D01*
X168716212Y-63545495D01*
X168608117Y-63440475D01*
X168581018Y-63405763D01*
X168448917Y-63297319D01*
X168243714Y-63163842D01*
X167996781Y-63026571D01*
X167773928Y-62914731D01*
X167564800Y-62824455D01*
X167382022Y-62774961D01*
X167176844Y-62753903D01*
X166900517Y-62748935D01*
X166872933Y-62748875D01*
X166582664Y-62755031D01*
X166371382Y-62780527D01*
X166191228Y-62834775D01*
X165994346Y-62927191D01*
X165785354Y-63031055D01*
X165613204Y-63094281D01*
X165515807Y-63081919D01*
X165472513Y-62989518D01*
X165462670Y-62812629D01*
X165460903Y-62743841D01*
X165425608Y-62567937D01*
X165347601Y-62511044D01*
X165230273Y-62576609D01*
X165210309Y-62593663D01*
X165020734Y-62670786D01*
X164782306Y-62671331D01*
X164546175Y-62593998D01*
X164503547Y-62569158D01*
X164309033Y-62379224D01*
X164211072Y-62137998D01*
X164210763Y-61878399D01*
X164309206Y-61633347D01*
X164507500Y-61435761D01*
X164609605Y-61383525D01*
X164766737Y-61355793D01*
X164980102Y-61374828D01*
X165282645Y-61440848D01*
X165335760Y-61453450D01*
X165423037Y-61455235D01*
X165456955Y-61387780D01*
X165462670Y-61220258D01*
X165464091Y-61163163D01*
X165485779Y-61000306D01*
X165525300Y-60915927D01*
X165574652Y-60913839D01*
X165716078Y-60956170D01*
X165901718Y-61040679D01*
X166333430Y-61219698D01*
X166797664Y-61308585D01*
X167230652Y-61280245D01*
X167269903Y-61271220D01*
X167555809Y-61180000D01*
X167874435Y-61044971D01*
X168186130Y-60886077D01*
X168451238Y-60723259D01*
X168630107Y-60576459D01*
X168724490Y-60483629D01*
X168812509Y-60443547D01*
X168895501Y-60485319D01*
X168910837Y-60497834D01*
X168981186Y-60534967D01*
X168997722Y-60471374D01*
X169045757Y-60395523D01*
X169194114Y-60343768D01*
X169390505Y-60314944D01*
X169390505Y-62005668D01*
G37*
G36*
X169390505Y-53058505D02*
G01*
X169390505Y-54727835D01*
X169224791Y-54727835D01*
X169109088Y-54706036D01*
X169024171Y-54636874D01*
X168983385Y-54590266D01*
X168861131Y-54579420D01*
X168742335Y-54568558D01*
X168578063Y-54445753D01*
X168560246Y-54427872D01*
X168409584Y-54310198D01*
X168189577Y-54168533D01*
X167941225Y-54029665D01*
X167804006Y-53959894D01*
X167587422Y-53862318D01*
X167400176Y-53808303D01*
X167188879Y-53785031D01*
X166900141Y-53779681D01*
X166875100Y-53779656D01*
X166583639Y-53786109D01*
X166371530Y-53811790D01*
X166190925Y-53866148D01*
X165993971Y-53958634D01*
X165785565Y-54062327D01*
X165613334Y-54125699D01*
X165515870Y-54113415D01*
X165472530Y-54021023D01*
X165462670Y-53844072D01*
X165456115Y-53664452D01*
X165417259Y-53571822D01*
X165318954Y-53574828D01*
X165134082Y-53658126D01*
X165127532Y-53661383D01*
X164972048Y-53724220D01*
X164835698Y-53727812D01*
X164649411Y-53674492D01*
X164545866Y-53629964D01*
X164332543Y-53456651D01*
X164213584Y-53227183D01*
X164193537Y-52971146D01*
X164276955Y-52718124D01*
X164468389Y-52497704D01*
X164582251Y-52427790D01*
X164748322Y-52389574D01*
X164971161Y-52404546D01*
X165282645Y-52471689D01*
X165335995Y-52484526D01*
X165423144Y-52486569D01*
X165456982Y-52419209D01*
X165462670Y-52251701D01*
X165464126Y-52194752D01*
X165486471Y-52031374D01*
X165527217Y-51946185D01*
X165565357Y-51942190D01*
X165696803Y-51981207D01*
X165870903Y-52067080D01*
X165978371Y-52124693D01*
X166402516Y-52283077D01*
X166836568Y-52349498D01*
X167238140Y-52316233D01*
X167452030Y-52254510D01*
X167785179Y-52123826D01*
X168117343Y-51961173D01*
X168406495Y-51787730D01*
X168610608Y-51624673D01*
X168725968Y-51517702D01*
X168816495Y-51479085D01*
X168897145Y-51518127D01*
X168911358Y-51529719D01*
X168981240Y-51564958D01*
X168997722Y-51495387D01*
X169042991Y-51415139D01*
X169194114Y-51389175D01*
X169390505Y-51389175D01*
X169390505Y-53058505D01*
G37*
G36*
X169390505Y-66478608D02*
G01*
X169390505Y-68147938D01*
X169194114Y-68147938D01*
X169045730Y-68123456D01*
X168997722Y-68041727D01*
X168997721Y-68040742D01*
X168978733Y-67972401D01*
X168903906Y-68013375D01*
X168874065Y-68034834D01*
X168785730Y-68042093D01*
X168669816Y-67950961D01*
X168605920Y-67892577D01*
X168353070Y-67711143D01*
X168032914Y-67528756D01*
X167689610Y-67368995D01*
X167367315Y-67255439D01*
X167227905Y-67218597D01*
X167008333Y-67178986D01*
X166806918Y-67181734D01*
X166554311Y-67224175D01*
X166374882Y-67269078D01*
X166095774Y-67364159D01*
X165870903Y-67468685D01*
X165772671Y-67521160D01*
X165616726Y-67583813D01*
X165527217Y-67590928D01*
X165513597Y-67576520D01*
X165477252Y-67462105D01*
X165462670Y-67285412D01*
X165462205Y-67206814D01*
X165448616Y-67081672D01*
X165397150Y-67044791D01*
X165282645Y-67065424D01*
X165024421Y-67123450D01*
X164786664Y-67148765D01*
X164611946Y-67121091D01*
X164468389Y-67039410D01*
X164463057Y-67035139D01*
X164320432Y-66871623D01*
X164218390Y-66673587D01*
X164189006Y-66427461D01*
X164260914Y-66185859D01*
X164415990Y-65988851D01*
X164629620Y-65857797D01*
X164877189Y-65814056D01*
X165134082Y-65878988D01*
X165305848Y-65957697D01*
X165411050Y-65968806D01*
X165454285Y-65885703D01*
X165462670Y-65693041D01*
X165468698Y-65543185D01*
X165504064Y-65434995D01*
X165589621Y-65407782D01*
X165746008Y-65457094D01*
X165993867Y-65578480D01*
X166162914Y-65659284D01*
X166353903Y-65721549D01*
X166571374Y-65751052D01*
X166867305Y-65758505D01*
X166952980Y-65758160D01*
X167210605Y-65747449D01*
X167417900Y-65712132D01*
X167629851Y-65639320D01*
X167901443Y-65516128D01*
X167967250Y-65483916D01*
X168220734Y-65346071D01*
X168435584Y-65209284D01*
X168571013Y-65098968D01*
X168709762Y-64984639D01*
X168861131Y-64957694D01*
X168940122Y-64962093D01*
X169024171Y-64900240D01*
X169086495Y-64841322D01*
X169224791Y-64809279D01*
X169390505Y-64809279D01*
X169390505Y-66478608D01*
G37*
G36*
X169390505Y-57531446D02*
G01*
X169390505Y-59222170D01*
X169194114Y-59193346D01*
X169057328Y-59149109D01*
X168997722Y-59065740D01*
X168997502Y-59051103D01*
X168975510Y-59001372D01*
X168895501Y-59051794D01*
X168831822Y-59090344D01*
X168748811Y-59071692D01*
X168630107Y-58960655D01*
X168608999Y-58939147D01*
X168414016Y-58788688D01*
X168139196Y-58625301D01*
X167824219Y-58468955D01*
X167508763Y-58339620D01*
X167232509Y-58257267D01*
X167200679Y-58250858D01*
X166780386Y-58230969D01*
X166329766Y-58315190D01*
X165884899Y-58497101D01*
X165769123Y-58553695D01*
X165610714Y-58612708D01*
X165523172Y-58619871D01*
X165510325Y-58605864D01*
X165476313Y-58492833D01*
X165462670Y-58316856D01*
X165462206Y-58238601D01*
X165448619Y-58113224D01*
X165397151Y-58076055D01*
X165282645Y-58096266D01*
X165043292Y-58150743D01*
X164811543Y-58181027D01*
X164643927Y-58164492D01*
X164507500Y-58101353D01*
X164466665Y-58072503D01*
X164285438Y-57864517D01*
X164203875Y-57614666D01*
X164220876Y-57355869D01*
X164335343Y-57121046D01*
X164546175Y-56943116D01*
X164577581Y-56927368D01*
X164817148Y-56861153D01*
X165051762Y-56872632D01*
X165230273Y-56960505D01*
X165266267Y-56990943D01*
X165373119Y-57022485D01*
X165439717Y-56932517D01*
X165462670Y-56724485D01*
X165468732Y-56574282D01*
X165504157Y-56466329D01*
X165589800Y-56439252D01*
X165746313Y-56488599D01*
X165994346Y-56609923D01*
X166011546Y-56618792D01*
X166205378Y-56707865D01*
X166386246Y-56759511D01*
X166602007Y-56783145D01*
X166900517Y-56788179D01*
X167131830Y-56784999D01*
X167346656Y-56767905D01*
X167529924Y-56724695D01*
X167730382Y-56643023D01*
X167996781Y-56510542D01*
X168110074Y-56450203D01*
X168342269Y-56312000D01*
X168518740Y-56187065D01*
X168608117Y-56096638D01*
X168686393Y-56005778D01*
X168836577Y-55988153D01*
X168939255Y-55989842D01*
X169025119Y-55929213D01*
X169086879Y-55871870D01*
X169224791Y-55840722D01*
X169390505Y-55840722D01*
X169390505Y-57531446D01*
G37*
G36*
X169390505Y-35121392D02*
G01*
X169390505Y-36790722D01*
X169224791Y-36790722D01*
X169109088Y-36768922D01*
X169024171Y-36699760D01*
X168983385Y-36653153D01*
X168861131Y-36642307D01*
X168738886Y-36629544D01*
X168571013Y-36501033D01*
X168546323Y-36476863D01*
X168386805Y-36357396D01*
X168158249Y-36217929D01*
X167901443Y-36083873D01*
X167857270Y-36062883D01*
X167593568Y-35946439D01*
X167382498Y-35879496D01*
X167170215Y-35849006D01*
X166902877Y-35841924D01*
X166807698Y-35842768D01*
X166521562Y-35862268D01*
X166282975Y-35917582D01*
X166027569Y-36021950D01*
X166014881Y-36027874D01*
X165759101Y-36141495D01*
X165597359Y-36190128D01*
X165508286Y-36169159D01*
X165470513Y-36073973D01*
X165462670Y-35899955D01*
X165462387Y-35844703D01*
X165452140Y-35690791D01*
X165418128Y-35633930D01*
X165348108Y-35647102D01*
X165180461Y-35713688D01*
X164926185Y-35782117D01*
X164724006Y-35777468D01*
X164538621Y-35702141D01*
X164517045Y-35689095D01*
X164316456Y-35498029D01*
X164216352Y-35261546D01*
X164212177Y-35009371D01*
X164299374Y-34771226D01*
X164473386Y-34576837D01*
X164729658Y-34455928D01*
X164824297Y-34440177D01*
X164942812Y-34450423D01*
X165104970Y-34499743D01*
X165348108Y-34596632D01*
X165368703Y-34604505D01*
X165429061Y-34602762D01*
X165456306Y-34524568D01*
X165462670Y-34342829D01*
X165472187Y-34170575D01*
X165515320Y-34069927D01*
X165611968Y-34047590D01*
X165782008Y-34099418D01*
X166045321Y-34221263D01*
X166160383Y-34275153D01*
X166379291Y-34353448D01*
X166609645Y-34391384D01*
X166910712Y-34401289D01*
X167112781Y-34398400D01*
X167312108Y-34380185D01*
X167493109Y-34334581D01*
X167700100Y-34249624D01*
X167977397Y-34113353D01*
X168119533Y-34038401D01*
X168352904Y-33901733D01*
X168527570Y-33781647D01*
X168613629Y-33697679D01*
X168686861Y-33615908D01*
X168839857Y-33600120D01*
X168945282Y-33603951D01*
X168997722Y-33541180D01*
X169044067Y-33478774D01*
X169194114Y-33452062D01*
X169390505Y-33452062D01*
X169390505Y-35121392D01*
G37*
G36*
X169390505Y-48574227D02*
G01*
X169390505Y-50276289D01*
X169220717Y-50276289D01*
X169100640Y-50253199D01*
X169016329Y-50143981D01*
X169012284Y-50129130D01*
X168967128Y-50052188D01*
X168887505Y-50089874D01*
X168834581Y-50120537D01*
X168747941Y-50100203D01*
X168623833Y-49985332D01*
X168580288Y-49944718D01*
X168406400Y-49819458D01*
X168166599Y-49675368D01*
X167899183Y-49536186D01*
X167885987Y-49529863D01*
X167593828Y-49397614D01*
X167368840Y-49318521D01*
X167166780Y-49280292D01*
X166943402Y-49270633D01*
X166669268Y-49285182D01*
X166212083Y-49383861D01*
X165836764Y-49571385D01*
X165722184Y-49639514D01*
X165576632Y-49663564D01*
X165490817Y-49571395D01*
X165462670Y-49361849D01*
X165455624Y-49213049D01*
X165418765Y-49121105D01*
X165335606Y-49097938D01*
X165260418Y-49108408D01*
X165168083Y-49163402D01*
X165148440Y-49183808D01*
X165021791Y-49222672D01*
X164836414Y-49223330D01*
X164642030Y-49188805D01*
X164488363Y-49122115D01*
X164488222Y-49122016D01*
X164354845Y-48984863D01*
X164248104Y-48805110D01*
X164192673Y-48541574D01*
X164242596Y-48291182D01*
X164381575Y-48086532D01*
X164588273Y-47948434D01*
X164841355Y-47897702D01*
X165119484Y-47955147D01*
X165307412Y-48026528D01*
X165412542Y-48029817D01*
X165454857Y-47945096D01*
X165462670Y-47755928D01*
X165468705Y-47605997D01*
X165504085Y-47497858D01*
X165589660Y-47470674D01*
X165746074Y-47519994D01*
X165993971Y-47641366D01*
X166013897Y-47651642D01*
X166206677Y-47739948D01*
X166387928Y-47791435D01*
X166605037Y-47815463D01*
X166905393Y-47821392D01*
X167103857Y-47819842D01*
X167333967Y-47805693D01*
X167522016Y-47766063D01*
X167720172Y-47688246D01*
X167980604Y-47559536D01*
X168064615Y-47515133D01*
X168301314Y-47375520D01*
X168488669Y-47244271D01*
X168592028Y-47144884D01*
X168689384Y-47043549D01*
X168841917Y-47020617D01*
X168940127Y-47021262D01*
X169025119Y-46960656D01*
X169086879Y-46903313D01*
X169224791Y-46872165D01*
X169390505Y-46872165D01*
X169390505Y-48574227D01*
G37*
G36*
X169390505Y-39605670D02*
G01*
X169390505Y-41307732D01*
X169220717Y-41307732D01*
X169100640Y-41284642D01*
X169016329Y-41175425D01*
X169010683Y-41154959D01*
X168965708Y-41082645D01*
X168884027Y-41124204D01*
X168850305Y-41148835D01*
X168768120Y-41156005D01*
X168669428Y-41060929D01*
X168571826Y-40968887D01*
X168356023Y-40821130D01*
X168079072Y-40665681D01*
X167777743Y-40521208D01*
X167488807Y-40406377D01*
X167249034Y-40339855D01*
X167119729Y-40321088D01*
X166654063Y-40319851D01*
X166213921Y-40416626D01*
X165836764Y-40604394D01*
X165717232Y-40674064D01*
X165573802Y-40694467D01*
X165489952Y-40598918D01*
X165462670Y-40385657D01*
X165462340Y-40323753D01*
X165450813Y-40187191D01*
X165408317Y-40143257D01*
X165315377Y-40162437D01*
X165288498Y-40170517D01*
X165109313Y-40209792D01*
X164897584Y-40241513D01*
X164737246Y-40249961D01*
X164583847Y-40208682D01*
X164425168Y-40086261D01*
X164271398Y-39889607D01*
X164195502Y-39626591D01*
X164237018Y-39359787D01*
X164396798Y-39118263D01*
X164398707Y-39116355D01*
X164532269Y-39005079D01*
X164669158Y-38962749D01*
X164871411Y-38969986D01*
X164943626Y-38978123D01*
X165158229Y-39011476D01*
X165315377Y-39048440D01*
X165368130Y-39063991D01*
X165431816Y-39057168D01*
X165457748Y-38977110D01*
X165462670Y-38795006D01*
X165464468Y-38719581D01*
X165489133Y-38553551D01*
X165537975Y-38492784D01*
X165612801Y-38512681D01*
X165775229Y-38577910D01*
X165979857Y-38672809D01*
X166188405Y-38765434D01*
X166380694Y-38820399D01*
X166604321Y-38846328D01*
X166908897Y-38852835D01*
X167092067Y-38851523D01*
X167327538Y-38838002D01*
X167518570Y-38799257D01*
X167718141Y-38722527D01*
X167979230Y-38595054D01*
X168059196Y-38553201D01*
X168296538Y-38413994D01*
X168485139Y-38281780D01*
X168589886Y-38180402D01*
X168691632Y-38074000D01*
X168841917Y-38052060D01*
X168940127Y-38052705D01*
X169025119Y-37992099D01*
X169086879Y-37934756D01*
X169224791Y-37903608D01*
X169390505Y-37903608D01*
X169390505Y-39605670D01*
G37*
G36*
X160945660Y-35121392D02*
G01*
X160945660Y-36790722D01*
X160779946Y-36790722D01*
X160664415Y-36769493D01*
X160580274Y-36702231D01*
X160528967Y-36652177D01*
X160386751Y-36644243D01*
X160274575Y-36646260D01*
X160185470Y-36566037D01*
X160184184Y-36562820D01*
X160077711Y-36443764D01*
X159867151Y-36314749D01*
X159577236Y-36184596D01*
X159232699Y-36062125D01*
X158858272Y-35956156D01*
X158478686Y-35875507D01*
X158118675Y-35829000D01*
X158103479Y-35827858D01*
X157666537Y-35822970D01*
X157242246Y-35866873D01*
X156868847Y-35953401D01*
X156584583Y-36076387D01*
X156545959Y-36098329D01*
X156307083Y-36176879D01*
X155979041Y-36201547D01*
X155950230Y-36201531D01*
X155741576Y-36197260D01*
X155630206Y-36176832D01*
X155585695Y-36127843D01*
X155577619Y-36037887D01*
X155578310Y-36007727D01*
X155616700Y-35901265D01*
X155741279Y-35874227D01*
X155812448Y-35869537D01*
X155887324Y-35818191D01*
X155904938Y-35677835D01*
X155901030Y-35592432D01*
X155858242Y-35502581D01*
X155741279Y-35481443D01*
X155675598Y-35478343D01*
X155610004Y-35445297D01*
X155582925Y-35348385D01*
X155577619Y-35154124D01*
X155579270Y-35017975D01*
X155596239Y-34889404D01*
X155645891Y-34836863D01*
X155745426Y-34826804D01*
X155843210Y-34817919D01*
X155894742Y-34760313D01*
X155892720Y-34614047D01*
X155886403Y-34562723D01*
X155835989Y-34430525D01*
X155724913Y-34380370D01*
X155615990Y-34333253D01*
X155577619Y-34200344D01*
X155577619Y-34199969D01*
X155586675Y-34111730D01*
X155634308Y-34064215D01*
X155751288Y-34044894D01*
X155968386Y-34041237D01*
X156283224Y-34065822D01*
X156609983Y-34171977D01*
X156911254Y-34294945D01*
X157401853Y-34395669D01*
X157951909Y-34414679D01*
X158537559Y-34353333D01*
X159134940Y-34212989D01*
X159720188Y-33995005D01*
X159900906Y-33903279D01*
X160075562Y-33789917D01*
X160169153Y-33696988D01*
X160241840Y-33615961D01*
X160395011Y-33600120D01*
X160500436Y-33603951D01*
X160552877Y-33541180D01*
X160599222Y-33478774D01*
X160749268Y-33452062D01*
X160945660Y-33452062D01*
X160945660Y-35121392D01*
G37*
G36*
X160945660Y-66478608D02*
G01*
X160945660Y-68147938D01*
X160749268Y-68147938D01*
X160600884Y-68123456D01*
X160552877Y-68041727D01*
X160552853Y-68036523D01*
X160533106Y-67971893D01*
X160457113Y-68014992D01*
X160409417Y-68045274D01*
X160324377Y-68034065D01*
X160206378Y-67927252D01*
X160067519Y-67810701D01*
X159784010Y-67649372D01*
X159420516Y-67496832D01*
X159006381Y-67363484D01*
X158570952Y-67259731D01*
X158143574Y-67195977D01*
X157804795Y-67183319D01*
X157347643Y-67222756D01*
X156924590Y-67319348D01*
X156580652Y-67465339D01*
X156525984Y-67495627D01*
X156258478Y-67595038D01*
X155942379Y-67624227D01*
X155928255Y-67624226D01*
X155726823Y-67620528D01*
X155622585Y-67598057D01*
X155583524Y-67539572D01*
X155577619Y-67427835D01*
X155581527Y-67342432D01*
X155624315Y-67252581D01*
X155741279Y-67231443D01*
X155812448Y-67226753D01*
X155887324Y-67175407D01*
X155904938Y-67035052D01*
X155901030Y-66949649D01*
X155858242Y-66859797D01*
X155741279Y-66838660D01*
X155675598Y-66835559D01*
X155610004Y-66802513D01*
X155582925Y-66705601D01*
X155577619Y-66511340D01*
X155579169Y-66379979D01*
X155595692Y-66248792D01*
X155644148Y-66194633D01*
X155741279Y-66184021D01*
X155812448Y-66179331D01*
X155887324Y-66127985D01*
X155904938Y-65987629D01*
X155901030Y-65902226D01*
X155858242Y-65812374D01*
X155741279Y-65791237D01*
X155670109Y-65786547D01*
X155595233Y-65735201D01*
X155577619Y-65594846D01*
X155577667Y-65567838D01*
X155586798Y-65470043D01*
X155633558Y-65419743D01*
X155749045Y-65401144D01*
X155964361Y-65398454D01*
X156082026Y-65401197D01*
X156387095Y-65448739D01*
X156684095Y-65571216D01*
X156827329Y-65635198D01*
X157242468Y-65744385D01*
X157729593Y-65787335D01*
X158258916Y-65762670D01*
X158800650Y-65669016D01*
X158946939Y-65631448D01*
X159295850Y-65522373D01*
X159619761Y-65396363D01*
X159893063Y-65265161D01*
X160090146Y-65140507D01*
X160185401Y-65034142D01*
X160239620Y-64967320D01*
X160386751Y-64955757D01*
X160493680Y-64958397D01*
X160580274Y-64897769D01*
X160642033Y-64840427D01*
X160779946Y-64809279D01*
X160945660Y-64809279D01*
X160945660Y-66478608D01*
G37*
G36*
X160945660Y-44155413D02*
G01*
X160945660Y-45824742D01*
X160779946Y-45824742D01*
X160664415Y-45803514D01*
X160580274Y-45736252D01*
X160528967Y-45686198D01*
X160386751Y-45678264D01*
X160274575Y-45680280D01*
X160185470Y-45600058D01*
X160185239Y-45599460D01*
X160079316Y-45476883D01*
X159867752Y-45346265D01*
X159574672Y-45215979D01*
X159224198Y-45094400D01*
X158840456Y-44989900D01*
X158447568Y-44910853D01*
X158069660Y-44865634D01*
X157995373Y-44861233D01*
X157563834Y-44866064D01*
X157153720Y-44917900D01*
X156800516Y-45010438D01*
X156539705Y-45137376D01*
X156388040Y-45225189D01*
X156259473Y-45235304D01*
X156188550Y-45131394D01*
X156166794Y-44908248D01*
X156160510Y-44737289D01*
X156130350Y-44615969D01*
X156068598Y-44580928D01*
X156023575Y-44587084D01*
X155970402Y-44635884D01*
X155947262Y-44691138D01*
X155825508Y-44764809D01*
X155629701Y-44814270D01*
X155394405Y-44834950D01*
X155154185Y-44822278D01*
X154943607Y-44771681D01*
X154759320Y-44700579D01*
X154985971Y-44509826D01*
X155076735Y-44423375D01*
X155124912Y-44338656D01*
X155082112Y-44313102D01*
X154966074Y-44351470D01*
X154794537Y-44458514D01*
X154605933Y-44597955D01*
X154379032Y-44457723D01*
X154299893Y-44407939D01*
X154126501Y-44281313D01*
X154061122Y-44181732D01*
X154096456Y-44086118D01*
X154225205Y-43971394D01*
X154528601Y-43766906D01*
X154922374Y-43576239D01*
X155285451Y-43483945D01*
X155340661Y-43479488D01*
X155557439Y-43488910D01*
X155760759Y-43531380D01*
X155911465Y-43596126D01*
X155970402Y-43672375D01*
X155981420Y-43698769D01*
X156068598Y-43729897D01*
X156119886Y-43708952D01*
X156156282Y-43608417D01*
X156166794Y-43402578D01*
X156180801Y-43212971D01*
X156241596Y-43086505D01*
X156358404Y-43075068D01*
X156539705Y-43173449D01*
X156583494Y-43201668D01*
X156862480Y-43320554D01*
X157226392Y-43405511D01*
X157639294Y-43450079D01*
X158065248Y-43447793D01*
X158086703Y-43446298D01*
X158459680Y-43400502D01*
X158848830Y-43320847D01*
X159229819Y-43215793D01*
X159578311Y-43093799D01*
X159869973Y-42963324D01*
X160080471Y-42832827D01*
X160185470Y-42710767D01*
X160239547Y-42644154D01*
X160386751Y-42632562D01*
X160493680Y-42635201D01*
X160580274Y-42574574D01*
X160642033Y-42517231D01*
X160779946Y-42486083D01*
X160945660Y-42486083D01*
X160945660Y-44155413D01*
G37*
G36*
X160945660Y-57444588D02*
G01*
X160945660Y-59113918D01*
X160749268Y-59113918D01*
X160600884Y-59089436D01*
X160552877Y-59007706D01*
X160552853Y-59002502D01*
X160533106Y-58937872D01*
X160457113Y-58980971D01*
X160408378Y-59011583D01*
X160323271Y-58999138D01*
X160204612Y-58891326D01*
X160054720Y-58760103D01*
X159728383Y-58570748D01*
X159314247Y-58409314D01*
X158838148Y-58283561D01*
X158325918Y-58201249D01*
X157803392Y-58170135D01*
X157778444Y-58170003D01*
X157465975Y-58171720D01*
X157240729Y-58185458D01*
X157061796Y-58218579D01*
X156888266Y-58278443D01*
X156679229Y-58372411D01*
X156646555Y-58387678D01*
X156435664Y-58478361D01*
X156277653Y-58533177D01*
X156204616Y-58540743D01*
X156192325Y-58511200D01*
X156174003Y-58378981D01*
X156166794Y-58186512D01*
X156158831Y-58014975D01*
X156119031Y-57895519D01*
X156037461Y-57893039D01*
X155904938Y-58001031D01*
X155845085Y-58044526D01*
X155646056Y-58110006D01*
X155394504Y-58132749D01*
X155140041Y-58110679D01*
X154932275Y-58041722D01*
X154777910Y-57956124D01*
X154997739Y-57782912D01*
X155098793Y-57697924D01*
X155149287Y-57629507D01*
X155100355Y-57608974D01*
X155090456Y-57609354D01*
X154954061Y-57653153D01*
X154794537Y-57747689D01*
X154605933Y-57887130D01*
X154379032Y-57746898D01*
X154306406Y-57701312D01*
X154133949Y-57576402D01*
X154069111Y-57478185D01*
X154104487Y-57382234D01*
X154232671Y-57264120D01*
X154577504Y-57028333D01*
X154944776Y-56856406D01*
X155291777Y-56770945D01*
X155597663Y-56776934D01*
X155841590Y-56879358D01*
X156003978Y-56985144D01*
X156106156Y-57000039D01*
X156154566Y-56905623D01*
X156166794Y-56691753D01*
X156166866Y-56672285D01*
X156186112Y-56464519D01*
X156250972Y-56370221D01*
X156378209Y-56381283D01*
X156584583Y-56489593D01*
X156592681Y-56494491D01*
X156880747Y-56616294D01*
X157256596Y-56701421D01*
X157681986Y-56743705D01*
X158118675Y-56736980D01*
X158128617Y-56736193D01*
X158489544Y-56688571D01*
X158869328Y-56607063D01*
X159243237Y-56500490D01*
X159586538Y-56377672D01*
X159874498Y-56247428D01*
X160082386Y-56118579D01*
X160185470Y-55999943D01*
X160239547Y-55933329D01*
X160386751Y-55921737D01*
X160493680Y-55924376D01*
X160580274Y-55863749D01*
X160642033Y-55806406D01*
X160779946Y-55775258D01*
X160945660Y-55775258D01*
X160945660Y-57444588D01*
G37*
G36*
X157034462Y-60268646D02*
G01*
X157164743Y-60356259D01*
X157222615Y-60408729D01*
X157340964Y-60595954D01*
X157368830Y-60794769D01*
X157297020Y-60963012D01*
X157216079Y-61079437D01*
X157100258Y-61313437D01*
X156994843Y-61588584D01*
X156918607Y-61854247D01*
X156890326Y-62059794D01*
X156893149Y-62288918D01*
X157593760Y-61551637D01*
X157780699Y-61356317D01*
X158009683Y-61124849D01*
X158178904Y-60968636D01*
X158305046Y-60874041D01*
X158404789Y-60827430D01*
X158494818Y-60815168D01*
X158503505Y-60815267D01*
X158686036Y-60862146D01*
X158840463Y-61012371D01*
X158932887Y-61119716D01*
X159064072Y-61191220D01*
X159261924Y-61208518D01*
X159531278Y-61169735D01*
X159846879Y-61007612D01*
X160131111Y-60718686D01*
X160142452Y-60703996D01*
X160301498Y-60543644D01*
X160429054Y-60509486D01*
X160496958Y-60511269D01*
X160579326Y-60448694D01*
X160641650Y-60389776D01*
X160779946Y-60357732D01*
X160945660Y-60357732D01*
X160945660Y-62059794D01*
X160945660Y-63761856D01*
X160779946Y-63761856D01*
X160664027Y-63739341D01*
X160578136Y-63667794D01*
X160548864Y-63626961D01*
X160447113Y-63610158D01*
X160415297Y-63613011D01*
X160290914Y-63556429D01*
X160134960Y-63422916D01*
X159913193Y-63248415D01*
X159574065Y-63097384D01*
X159218228Y-63041753D01*
X159164596Y-63047524D01*
X158982956Y-63091443D01*
X158736243Y-63169145D01*
X158461924Y-63269355D01*
X158111126Y-63401375D01*
X157765436Y-63513308D01*
X157464658Y-63582782D01*
X157169396Y-63618540D01*
X156840255Y-63629328D01*
X156661778Y-63624514D01*
X156154781Y-63541466D01*
X155723528Y-63358076D01*
X155374485Y-63077812D01*
X155114120Y-62704139D01*
X155086948Y-62648777D01*
X155016630Y-62480168D01*
X154988444Y-62369114D01*
X154984673Y-62351300D01*
X154906601Y-62262289D01*
X154759320Y-62171174D01*
X154630741Y-62099860D01*
X154542097Y-62011652D01*
X154572077Y-61951260D01*
X154722240Y-61928866D01*
X154797228Y-61925510D01*
X154897410Y-61879431D01*
X154934997Y-61748840D01*
X154946010Y-61679780D01*
X155000886Y-61594589D01*
X155132937Y-61587219D01*
X155166060Y-61588428D01*
X155254751Y-61567880D01*
X155365710Y-61503344D01*
X155515676Y-61381860D01*
X155721384Y-61190470D01*
X155999573Y-60916214D01*
X156154505Y-60762515D01*
X156419345Y-60511430D01*
X156622248Y-60344916D01*
X156780727Y-60254558D01*
X156912294Y-60231940D01*
X157034462Y-60268646D01*
G37*
G36*
X160945660Y-53025773D02*
G01*
X160945660Y-54727835D01*
X160775872Y-54727835D01*
X160655794Y-54704745D01*
X160571484Y-54595528D01*
X160567439Y-54580676D01*
X160522283Y-54503735D01*
X160442660Y-54541420D01*
X160396709Y-54570307D01*
X160310903Y-54558306D01*
X160191422Y-54450288D01*
X159992691Y-54296324D01*
X159674091Y-54141149D01*
X159271856Y-54003031D01*
X158810474Y-53887130D01*
X158314434Y-53798607D01*
X157808221Y-53742621D01*
X157316325Y-53724333D01*
X156863232Y-53748904D01*
X156621384Y-53777781D01*
X156363487Y-53818075D01*
X156177880Y-53865876D01*
X156030241Y-53930792D01*
X155886249Y-54022433D01*
X155836902Y-54054532D01*
X155667486Y-54114619D01*
X155553738Y-54069697D01*
X155512155Y-53924103D01*
X155496102Y-53815054D01*
X155422232Y-53647924D01*
X155367671Y-53586359D01*
X155292138Y-53557143D01*
X155164599Y-53566152D01*
X154947619Y-53610429D01*
X154786672Y-53651286D01*
X154523076Y-53735456D01*
X154315193Y-53821565D01*
X154185564Y-53882661D01*
X154049367Y-53911533D01*
X153959167Y-53848705D01*
X153876139Y-53681817D01*
X153788652Y-53543434D01*
X153673773Y-53484021D01*
X153603372Y-53471376D01*
X153451436Y-53369644D01*
X153333688Y-53202315D01*
X153286382Y-53013429D01*
X153294279Y-52942251D01*
X153371201Y-52764651D01*
X153500314Y-52624453D01*
X153644752Y-52567526D01*
X153650126Y-52567245D01*
X153745638Y-52507559D01*
X153840678Y-52375285D01*
X153926889Y-52227599D01*
X154019948Y-52152919D01*
X154149128Y-52160963D01*
X154354005Y-52241407D01*
X154450538Y-52280597D01*
X154727631Y-52371805D01*
X154999259Y-52438649D01*
X155096710Y-52456286D01*
X155266430Y-52475256D01*
X155364501Y-52455468D01*
X155430191Y-52392738D01*
X155483408Y-52275650D01*
X155512155Y-52096766D01*
X155514177Y-52043367D01*
X155546222Y-51946661D01*
X155631811Y-51922389D01*
X155789606Y-51970320D01*
X156038266Y-52090220D01*
X156065996Y-52104477D01*
X156224823Y-52177644D01*
X156381798Y-52227207D01*
X156570116Y-52259121D01*
X156822971Y-52279336D01*
X157173560Y-52293807D01*
X157435812Y-52297208D01*
X158007072Y-52270515D01*
X158562744Y-52201479D01*
X159079962Y-52095340D01*
X159535855Y-51957337D01*
X159907557Y-51792711D01*
X160172198Y-51606702D01*
X160195494Y-51585385D01*
X160336852Y-51492097D01*
X160445355Y-51474734D01*
X160497452Y-51480760D01*
X160578136Y-51417774D01*
X160641168Y-51356880D01*
X160779946Y-51323712D01*
X160945660Y-51323712D01*
X160945660Y-53025773D01*
G37*
G36*
X157043463Y-37930926D02*
G01*
X157232624Y-38083412D01*
X157347255Y-38274830D01*
X157372664Y-38473719D01*
X157294161Y-38648616D01*
X157255908Y-38696597D01*
X157125294Y-38922626D01*
X157006726Y-39206905D01*
X156920959Y-39494120D01*
X156888751Y-39728962D01*
X156890605Y-39965722D01*
X157592488Y-39226821D01*
X157868714Y-38941218D01*
X158115291Y-38706126D01*
X158307562Y-38557885D01*
X158461780Y-38489698D01*
X158594195Y-38494774D01*
X158721060Y-38566319D01*
X158858626Y-38697538D01*
X158887334Y-38727880D01*
X159016771Y-38840116D01*
X159147442Y-38879757D01*
X159342721Y-38869286D01*
X159494683Y-38838071D01*
X159777349Y-38714284D01*
X160020102Y-38530630D01*
X160177435Y-38317205D01*
X160265922Y-38198816D01*
X160398802Y-38183319D01*
X160495587Y-38183618D01*
X160580274Y-38123027D01*
X160642033Y-38065684D01*
X160779946Y-38034536D01*
X160945660Y-38034536D01*
X160945660Y-39736598D01*
X160945601Y-39884103D01*
X160944054Y-40378740D01*
X160939850Y-40759690D01*
X160932242Y-41040654D01*
X160920482Y-41235332D01*
X160903823Y-41357426D01*
X160881518Y-41420635D01*
X160852818Y-41438660D01*
X160761398Y-41430610D01*
X160611198Y-41367481D01*
X160552877Y-41259981D01*
X160552729Y-41247915D01*
X160531307Y-41195404D01*
X160452195Y-41244331D01*
X160442077Y-41252405D01*
X160366812Y-41280551D01*
X160277304Y-41234415D01*
X160141241Y-41098884D01*
X160034904Y-40995823D01*
X159715788Y-40804949D01*
X159342320Y-40732965D01*
X158914938Y-40779910D01*
X158434078Y-40945824D01*
X157990801Y-41115985D01*
X157411288Y-41258575D01*
X156858782Y-41305557D01*
X156349292Y-41257312D01*
X155898829Y-41114218D01*
X155523403Y-40876658D01*
X155517884Y-40871907D01*
X155323452Y-40672101D01*
X155153869Y-40442161D01*
X155033933Y-40220597D01*
X154988444Y-40045918D01*
X154984673Y-40028104D01*
X154906601Y-39939093D01*
X154759320Y-39847978D01*
X154630741Y-39776664D01*
X154542097Y-39688456D01*
X154572077Y-39628064D01*
X154722240Y-39605670D01*
X154797228Y-39602315D01*
X154897410Y-39556235D01*
X154934997Y-39425645D01*
X154948411Y-39346071D01*
X155005660Y-39269546D01*
X155142615Y-39265541D01*
X155146240Y-39265914D01*
X155254476Y-39259637D01*
X155364647Y-39205497D01*
X155503102Y-39085156D01*
X155696192Y-38880275D01*
X155846611Y-38718452D01*
X156134308Y-38432058D01*
X156403799Y-38191930D01*
X156638444Y-38011446D01*
X156821601Y-37903987D01*
X156936631Y-37882930D01*
X157043463Y-37930926D01*
G37*
G36*
X160896562Y-46920880D02*
G01*
X160907980Y-46972339D01*
X160920172Y-47139211D01*
X160930551Y-47404213D01*
X160938602Y-47749627D01*
X160943810Y-48157736D01*
X160945660Y-48610822D01*
X160945660Y-50276289D01*
X160779946Y-50276289D01*
X160664415Y-50255060D01*
X160580274Y-50187798D01*
X160528967Y-50137744D01*
X160386751Y-50129810D01*
X160274819Y-50131882D01*
X160185565Y-50051853D01*
X160156144Y-50000854D01*
X159997796Y-49870872D01*
X159734370Y-49744081D01*
X159384401Y-49624862D01*
X158966422Y-49517594D01*
X158498967Y-49426656D01*
X158000572Y-49356427D01*
X157489769Y-49311287D01*
X156985093Y-49295616D01*
X156479912Y-49312870D01*
X156004526Y-49367868D01*
X155623436Y-49457792D01*
X155353318Y-49579738D01*
X155335907Y-49590925D01*
X155152840Y-49675127D01*
X155032035Y-49664772D01*
X154988444Y-49560643D01*
X154987955Y-49551100D01*
X154929454Y-49426315D01*
X154803129Y-49302218D01*
X154764025Y-49274915D01*
X154665291Y-49220312D01*
X154559257Y-49202022D01*
X154405821Y-49217706D01*
X154164880Y-49265028D01*
X154160574Y-49265928D01*
X153920663Y-49312957D01*
X153724337Y-49345917D01*
X153613726Y-49357725D01*
X153568897Y-49339302D01*
X153460748Y-49235940D01*
X153343732Y-49072346D01*
X153233427Y-48919834D01*
X153090513Y-48789898D01*
X152964153Y-48737188D01*
X152876555Y-48769666D01*
X152849927Y-48895296D01*
X152849675Y-48979008D01*
X152802691Y-49049489D01*
X152664474Y-49065206D01*
X152562042Y-49059641D01*
X152488242Y-49012421D01*
X152480428Y-48885029D01*
X152483167Y-48800288D01*
X152456734Y-48740442D01*
X152370170Y-48770467D01*
X152297555Y-48807209D01*
X152214061Y-48823354D01*
X152179993Y-48752594D01*
X152173495Y-48572980D01*
X152173696Y-48526310D01*
X152184930Y-48384598D01*
X152228783Y-48335636D01*
X152326461Y-48348269D01*
X152372200Y-48358285D01*
X152457653Y-48343769D01*
X152473755Y-48234954D01*
X152475779Y-48172857D01*
X152524546Y-48100697D01*
X152664474Y-48083248D01*
X152764006Y-48088473D01*
X152840140Y-48134353D01*
X152849234Y-48258218D01*
X152850085Y-48372879D01*
X152899189Y-48403387D01*
X153033561Y-48364876D01*
X153084560Y-48341621D01*
X153251155Y-48214492D01*
X153400367Y-48038399D01*
X153487433Y-47918167D01*
X153598336Y-47821680D01*
X153707019Y-47812760D01*
X153810303Y-47835924D01*
X154012579Y-47878943D01*
X154250503Y-47927963D01*
X154303565Y-47938666D01*
X154508195Y-47974766D01*
X154635092Y-47976473D01*
X154726163Y-47938487D01*
X154823312Y-47855506D01*
X154836481Y-47842872D01*
X154944235Y-47715307D01*
X154988444Y-47617452D01*
X154993757Y-47567589D01*
X155055262Y-47503916D01*
X155194889Y-47522939D01*
X155424169Y-47624854D01*
X155776223Y-47762642D01*
X156297794Y-47864200D01*
X156924917Y-47896043D01*
X157654516Y-47857849D01*
X158219936Y-47791203D01*
X158796677Y-47691635D01*
X159300602Y-47569697D01*
X159717213Y-47429589D01*
X160032011Y-47275510D01*
X160230499Y-47111661D01*
X160273966Y-47061348D01*
X160356387Y-47013467D01*
X160447177Y-47062330D01*
X160471391Y-47081920D01*
X160537865Y-47113578D01*
X160552877Y-47043841D01*
X160561261Y-46990948D01*
X160618340Y-46929446D01*
X160637238Y-46927014D01*
X160765634Y-46908834D01*
X160791857Y-46906266D01*
X160896562Y-46920880D01*
G37*
%TD*%
M02*
