M48
; DRILL file KiCad 10.0.5 date 2026-08-27T04:36:11
; FORMAT={-:-/ absolute / metric / decimal}
; #@! TF.CreationDate,2026-08-27T04:36:11-05:00
; #@! TF.GenerationSoftware,Kicad,Pcbnew,10.0.5
; #@! TF.FileFunction,Plated,1,2,PTH
FMAT,2
METRIC
; #@! TA.AperFunction,Plated,PTH,ViaDrill
T1C0.300
; #@! TA.AperFunction,Plated,PTH,ComponentDrill
T2C0.500
; #@! TA.AperFunction,Plated,PTH,ComponentDrill
T3C0.600
; #@! TA.AperFunction,Plated,PTH,ComponentDrill
T4C0.950
; #@! TA.AperFunction,Plated,PTH,ComponentDrill
T5C3.200
%
G90
G05
T1
X159.85Y-43.65
X159.91Y-48.75
X160.501Y-50.299
X163.65Y-53.65
X165.56Y-45.222
X165.6Y-39.1
X166.25Y-56.75
X166.846Y-45.2
X168.149Y-44.549
X170.45Y-54.95
X174.89Y-44.41
T2
X176.67Y-36.83
X177.373Y-35.133
X177.373Y-38.527
X179.07Y-34.43
X179.07Y-39.23
X180.767Y-35.133
X180.767Y-38.527
X181.47Y-36.83
T4
X159.032Y-53.717
X159.032Y-56.217
X159.032Y-58.717
X159.032Y-61.217
X159.032Y-63.717
X159.032Y-66.218
X164.25Y-61.967
X166.75Y-61.967
X169.25Y-61.967
X171.75Y-61.967
X176.968Y-53.717
X176.968Y-56.217
X176.968Y-58.717
X176.968Y-61.217
X176.968Y-63.717
X176.968Y-66.218
T5
X179.07Y-36.83
T3
G00X163.68Y-33.325
M15
G01X163.68Y-32.525
M16
G05
G00X163.68Y-37.655
M15
G01X163.68Y-36.555
M16
G05
G00X172.32Y-33.325
M15
G01X172.32Y-32.525
M16
G05
G00X172.32Y-37.655
M15
G01X172.32Y-36.555
M16
G05
M30
