%TF.GenerationSoftware,KiCad,Pcbnew,10.0.5*%
%TF.CreationDate,2026-08-27T04:19:53-05:00*%
%TF.ProjectId,USB-Dongle,5553422d-446f-46e6-976c-652e6b696361,rev?*%
%TF.SameCoordinates,Original*%
%TF.FileFunction,Copper,L2,Bot*%
%TF.FilePolarity,Positive*%
%FSLAX46Y46*%
G04 Gerber Fmt 4.6, Leading zero omitted, Abs format (unit mm)*
G04 Created by KiCad (PCBNEW 10.0.5) date 2026-08-27 04:19:53*
%MOMM*%
%LPD*%
G01*
G04 APERTURE LIST*
G04 Aperture macros list*
%AMRoundRect*
0 Rectangle with rounded corners*
0 $1 Rounding radius*
0 $2 $3 $4 $5 $6 $7 $8 $9 X,Y pos of 4 corners*
0 Add a 4 corners polygon primitive as box body*
4,1,4,$2,$3,$4,$5,$6,$7,$8,$9,$2,$3,0*
0 Add four circle primitives for the rounded corners*
1,1,$1+$1,$2,$3*
1,1,$1+$1,$4,$5*
1,1,$1+$1,$6,$7*
1,1,$1+$1,$8,$9*
0 Add four rect primitives between the rounded corners*
20,1,$1+$1,$2,$3,$4,$5,0*
20,1,$1+$1,$4,$5,$6,$7,0*
20,1,$1+$1,$6,$7,$8,$9,0*
20,1,$1+$1,$8,$9,$2,$3,0*%
G04 Aperture macros list end*
%TA.AperFunction,ComponentPad*%
%ADD10RoundRect,0.250000X0.725000X-0.600000X0.725000X0.600000X-0.725000X0.600000X-0.725000X-0.600000X0*%
%TD*%
%TA.AperFunction,ComponentPad*%
%ADD11O,1.950000X1.700000*%
%TD*%
%TA.AperFunction,ComponentPad*%
%ADD12O,1.000000X2.100000*%
%TD*%
%TA.AperFunction,ComponentPad*%
%ADD13O,1.000000X1.800000*%
%TD*%
%TA.AperFunction,ComponentPad*%
%ADD14C,0.800000*%
%TD*%
%TA.AperFunction,ComponentPad*%
%ADD15C,6.400000*%
%TD*%
%TA.AperFunction,ComponentPad*%
%ADD16RoundRect,0.250000X0.600000X0.725000X-0.600000X0.725000X-0.600000X-0.725000X0.600000X-0.725000X0*%
%TD*%
%TA.AperFunction,ComponentPad*%
%ADD17O,1.700000X1.950000*%
%TD*%
%TA.AperFunction,ComponentPad*%
%ADD18RoundRect,0.250000X-0.725000X0.600000X-0.725000X-0.600000X0.725000X-0.600000X0.725000X0.600000X0*%
%TD*%
%TA.AperFunction,ViaPad*%
%ADD19C,0.600000*%
%TD*%
%TA.AperFunction,Conductor*%
%ADD20C,0.200000*%
%TD*%
G04 APERTURE END LIST*
D10*
%TO.P,J3,1,Pin_1_1*%
%TO.N,GND*%
X159032500Y-66217500D03*
D11*
%TO.P,J3,2,Pin_2_2*%
%TO.N,CTS*%
X159032500Y-63717500D03*
%TO.P,J3,3,Pin_3_3*%
%TO.N,VCC_OUT*%
X159032500Y-61217500D03*
%TO.P,J3,4,Pin_4_4*%
%TO.N,/UART_TX*%
X159032500Y-58717500D03*
%TO.P,J3,5,Pin_5_5*%
%TO.N,/UART_RX*%
X159032500Y-56217500D03*
%TO.P,J3,6,Pin_6_6*%
%TO.N,DTR*%
X159032500Y-53717500D03*
%TD*%
D12*
%TO.P,J1,SH,SHIELD_SH*%
%TO.N,GND*%
X172320000Y-37105000D03*
D13*
X172320000Y-32925000D03*
D12*
X163680000Y-37105000D03*
D13*
X163680000Y-32925000D03*
%TD*%
D14*
%TO.P,REF\u002A\u002A,1*%
%TO.N,N/C*%
X176670000Y-36830000D03*
X177372944Y-35132944D03*
X177372944Y-38527056D03*
X179070000Y-34430000D03*
D15*
X179070000Y-36830000D03*
D14*
X179070000Y-39230000D03*
X180767056Y-35132944D03*
X180767056Y-38527056D03*
X181470000Y-36830000D03*
%TD*%
D16*
%TO.P,J2,1,Pin_1_1*%
%TO.N,GND*%
X171750000Y-61967500D03*
D17*
%TO.P,J2,2,Pin_2_2*%
X169250000Y-61967500D03*
%TO.P,J2,3,Pin_3_3*%
%TO.N,VBUS*%
X166750000Y-61967500D03*
%TO.P,J2,4,Pin_4_4*%
%TO.N,+3V3*%
X164250000Y-61967500D03*
%TD*%
D18*
%TO.P,J4,1,Pin_1_1*%
%TO.N,CTS*%
X176967500Y-53717500D03*
D11*
%TO.P,J4,2,Pin_2_2*%
%TO.N,RTS*%
X176967500Y-56217500D03*
%TO.P,J4,3,Pin_3_3*%
%TO.N,DSR*%
X176967500Y-58717500D03*
%TO.P,J4,4,Pin_4_4*%
%TO.N,DCD*%
X176967500Y-61217500D03*
%TO.P,J4,5,Pin_5_5*%
%TO.N,RI*%
X176967500Y-63717500D03*
%TO.P,J4,6,Pin_6_6*%
%TO.N,R232*%
X176967500Y-66217500D03*
%TD*%
D19*
%TO.N,GND*%
X170450000Y-54950000D03*
X163650000Y-53650000D03*
%TO.N,/UART_RX*%
X166250000Y-56750000D03*
%TO.N,DTR*%
X168149265Y-44549265D03*
%TO.N,VBUS*%
X165600000Y-39100000D03*
X159850000Y-43650000D03*
%TO.N,+3V3*%
X159910000Y-48750000D03*
X174889951Y-44410049D03*
X160500735Y-50299265D03*
%TO.N,RTS*%
X166845626Y-45199999D03*
%TO.N,R232*%
X165559748Y-45221991D03*
%TD*%
%TO.N,GND*%
D20*
X159032500Y-66217500D02*
X165000000Y-66217500D01*
X164950000Y-54950000D02*
X163650000Y-53650000D01*
X170450000Y-54950000D02*
X164950000Y-54950000D01*
X165000000Y-66217500D02*
X169250000Y-61967500D01*
%TO.N,/UART_RX*%
X165717500Y-56217500D02*
X166250000Y-56750000D01*
X159032500Y-56217500D02*
X165717500Y-56217500D01*
%TO.N,DTR*%
X165400000Y-44500000D02*
X168100000Y-44500000D01*
X159032500Y-50867500D02*
X165400000Y-44500000D01*
X159032500Y-53717500D02*
X159032500Y-50867500D01*
X168100000Y-44500000D02*
X168149265Y-44549265D01*
%TO.N,VBUS*%
X168025000Y-60692500D02*
X169726346Y-60692500D01*
X157550000Y-45950000D02*
X159850000Y-43650000D01*
X161050000Y-43650000D02*
X165600000Y-39100000D01*
X157550000Y-66844744D02*
X157550000Y-45950000D01*
X170400000Y-61366154D02*
X170400000Y-62568846D01*
X166750000Y-61967500D02*
X168025000Y-60692500D01*
X165368846Y-67600000D02*
X158305256Y-67600000D01*
X170400000Y-62568846D02*
X165368846Y-67600000D01*
X169726346Y-60692500D02*
X170400000Y-61366154D01*
X158305256Y-67600000D02*
X157550000Y-66844744D01*
X159850000Y-43650000D02*
X161050000Y-43650000D01*
%TO.N,+3V3*%
X169917893Y-50299265D02*
X160500735Y-50299265D01*
X172900000Y-53281372D02*
X169917893Y-50299265D01*
X165925000Y-60292500D02*
X168150000Y-60292500D01*
X172900000Y-55542500D02*
X172900000Y-53281372D01*
X164250000Y-61967500D02*
X165925000Y-60292500D01*
X174429167Y-43949265D02*
X164710735Y-43949265D01*
X164710735Y-43949265D02*
X159910000Y-48750000D01*
X174889951Y-44410049D02*
X174429167Y-43949265D01*
X168150000Y-60292500D02*
X172900000Y-55542500D01*
%TO.N,RTS*%
X166845626Y-46095626D02*
X166845626Y-45199999D01*
X176967500Y-56217500D02*
X166845626Y-46095626D01*
%TO.N,R232*%
X176967500Y-66217500D02*
X175692500Y-64942500D01*
X165559748Y-45375434D02*
X165559748Y-45221991D01*
X175692500Y-64942500D02*
X175692500Y-55508186D01*
X175692500Y-55508186D02*
X165559748Y-45375434D01*
%TD*%
%TA.AperFunction,Conductor*%
%TO.N,GND*%
G36*
X159952866Y-50898880D02*
G01*
X159988202Y-50919212D01*
X159990443Y-50921051D01*
X159990446Y-50921054D01*
X159990449Y-50921056D01*
X160121549Y-51008655D01*
X160121562Y-51008662D01*
X160267233Y-51069000D01*
X160267238Y-51069002D01*
X160421888Y-51099764D01*
X160421891Y-51099765D01*
X160421893Y-51099765D01*
X160579579Y-51099765D01*
X160579580Y-51099764D01*
X160734232Y-51069002D01*
X160879914Y-51008659D01*
X160879920Y-51008655D01*
X161011610Y-50920663D01*
X161078288Y-50899785D01*
X161080501Y-50899765D01*
X169617796Y-50899765D01*
X169684835Y-50919450D01*
X169705477Y-50936084D01*
X172263181Y-53493788D01*
X172296666Y-53555111D01*
X172299500Y-53581469D01*
X172299500Y-55242403D01*
X172279815Y-55309442D01*
X172263181Y-55330084D01*
X167937584Y-59655681D01*
X167876261Y-59689166D01*
X167849903Y-59692000D01*
X166011670Y-59692000D01*
X166011654Y-59691999D01*
X166004058Y-59691999D01*
X165845943Y-59691999D01*
X165769579Y-59712461D01*
X165693214Y-59732923D01*
X165693209Y-59732926D01*
X165556290Y-59811975D01*
X165556282Y-59811981D01*
X164828867Y-60539396D01*
X164767544Y-60572881D01*
X164702868Y-60569646D01*
X164566240Y-60525253D01*
X164404957Y-60499708D01*
X164356287Y-60492000D01*
X164143713Y-60492000D01*
X164095042Y-60499708D01*
X163933760Y-60525253D01*
X163731585Y-60590944D01*
X163542179Y-60687451D01*
X163370213Y-60812390D01*
X163219890Y-60962713D01*
X163094951Y-61134679D01*
X162998444Y-61324085D01*
X162932753Y-61526260D01*
X162899500Y-61736213D01*
X162899500Y-62198786D01*
X162928372Y-62381080D01*
X162932754Y-62408743D01*
X162984441Y-62567819D01*
X162998444Y-62610914D01*
X163094951Y-62800320D01*
X163219890Y-62972286D01*
X163370213Y-63122609D01*
X163542179Y-63247548D01*
X163542181Y-63247549D01*
X163542184Y-63247551D01*
X163731588Y-63344057D01*
X163933757Y-63409746D01*
X164143713Y-63443000D01*
X164143714Y-63443000D01*
X164356286Y-63443000D01*
X164356287Y-63443000D01*
X164566243Y-63409746D01*
X164768412Y-63344057D01*
X164957816Y-63247551D01*
X165024524Y-63199085D01*
X165129786Y-63122609D01*
X165129788Y-63122606D01*
X165129792Y-63122604D01*
X165280104Y-62972292D01*
X165399683Y-62807704D01*
X165455011Y-62765040D01*
X165524624Y-62759061D01*
X165586420Y-62791666D01*
X165600313Y-62807699D01*
X165719654Y-62971959D01*
X165719896Y-62972292D01*
X165870213Y-63122609D01*
X166042179Y-63247548D01*
X166042181Y-63247549D01*
X166042184Y-63247551D01*
X166231588Y-63344057D01*
X166433757Y-63409746D01*
X166643713Y-63443000D01*
X166643714Y-63443000D01*
X166856286Y-63443000D01*
X166856287Y-63443000D01*
X167066243Y-63409746D01*
X167268412Y-63344057D01*
X167457816Y-63247551D01*
X167524524Y-63199085D01*
X167629786Y-63122609D01*
X167629788Y-63122606D01*
X167629792Y-63122604D01*
X167780104Y-62972292D01*
X167899991Y-62807279D01*
X167955320Y-62764615D01*
X168024933Y-62758636D01*
X168086729Y-62791241D01*
X168100627Y-62807281D01*
X168220272Y-62971959D01*
X168220276Y-62971964D01*
X168370535Y-63122223D01*
X168370540Y-63122227D01*
X168542444Y-63247122D01*
X168609016Y-63281043D01*
X168659811Y-63329017D01*
X168676606Y-63396838D01*
X168654068Y-63462973D01*
X168640401Y-63479208D01*
X165156430Y-66963181D01*
X165095107Y-66996666D01*
X165068749Y-66999500D01*
X160631252Y-66999500D01*
X160564213Y-66979815D01*
X160518458Y-66927011D01*
X160507690Y-66870636D01*
X160507500Y-66870636D01*
X160507500Y-66869641D01*
X160507413Y-66869186D01*
X160507500Y-66867479D01*
X160507500Y-66467500D01*
X159436646Y-66467500D01*
X159475130Y-66400843D01*
X159507500Y-66280035D01*
X159507500Y-66154965D01*
X159475130Y-66034157D01*
X159436646Y-65967500D01*
X160507499Y-65967500D01*
X160507499Y-65567528D01*
X160507498Y-65567513D01*
X160497005Y-65464802D01*
X160441858Y-65298380D01*
X160441856Y-65298375D01*
X160349815Y-65149154D01*
X160225845Y-65025184D01*
X160071015Y-64929684D01*
X160024291Y-64877736D01*
X160013068Y-64808773D01*
X160040912Y-64744691D01*
X160048409Y-64736486D01*
X160187604Y-64597292D01*
X160312551Y-64425316D01*
X160409057Y-64235912D01*
X160474746Y-64033743D01*
X160508000Y-63823787D01*
X160508000Y-63611213D01*
X160474746Y-63401257D01*
X160409057Y-63199088D01*
X160312551Y-63009684D01*
X160312549Y-63009681D01*
X160312548Y-63009679D01*
X160187609Y-62837713D01*
X160037292Y-62687396D01*
X159872704Y-62567816D01*
X159830040Y-62512489D01*
X159824061Y-62442876D01*
X159856666Y-62381080D01*
X159872699Y-62367186D01*
X160037292Y-62247604D01*
X160187604Y-62097292D01*
X160187606Y-62097288D01*
X160187609Y-62097286D01*
X160312548Y-61925320D01*
X160312547Y-61925320D01*
X160312551Y-61925316D01*
X160409057Y-61735912D01*
X160474746Y-61533743D01*
X160508000Y-61323787D01*
X160508000Y-61111213D01*
X160474746Y-60901257D01*
X160409057Y-60699088D01*
X160312551Y-60509684D01*
X160312549Y-60509681D01*
X160312548Y-60509679D01*
X160187609Y-60337713D01*
X160037292Y-60187396D01*
X160002143Y-60161859D01*
X159872704Y-60067816D01*
X159830040Y-60012489D01*
X159824061Y-59942876D01*
X159856666Y-59881080D01*
X159872699Y-59867186D01*
X160037292Y-59747604D01*
X160187604Y-59597292D01*
X160187606Y-59597288D01*
X160187609Y-59597286D01*
X160312548Y-59425320D01*
X160312547Y-59425320D01*
X160312551Y-59425316D01*
X160409057Y-59235912D01*
X160474746Y-59033743D01*
X160508000Y-58823787D01*
X160508000Y-58611213D01*
X160474746Y-58401257D01*
X160409057Y-58199088D01*
X160312551Y-58009684D01*
X160312549Y-58009681D01*
X160312548Y-58009679D01*
X160187609Y-57837713D01*
X160037292Y-57687396D01*
X159872704Y-57567816D01*
X159830040Y-57512489D01*
X159824061Y-57442876D01*
X159856666Y-57381080D01*
X159872699Y-57367186D01*
X160037292Y-57247604D01*
X160187604Y-57097292D01*
X160187606Y-57097288D01*
X160187609Y-57097286D01*
X160270280Y-56983497D01*
X160312551Y-56925316D01*
X160316377Y-56917808D01*
X160332735Y-56885705D01*
X160380709Y-56834909D01*
X160443219Y-56818000D01*
X165345579Y-56818000D01*
X165412618Y-56837685D01*
X165458373Y-56890489D01*
X165467196Y-56917808D01*
X165480261Y-56983491D01*
X165480264Y-56983501D01*
X165540602Y-57129172D01*
X165540609Y-57129185D01*
X165628210Y-57260288D01*
X165628213Y-57260292D01*
X165739707Y-57371786D01*
X165739711Y-57371789D01*
X165870814Y-57459390D01*
X165870827Y-57459397D01*
X166016498Y-57519735D01*
X166016503Y-57519737D01*
X166171153Y-57550499D01*
X166171156Y-57550500D01*
X166171158Y-57550500D01*
X166328844Y-57550500D01*
X166328845Y-57550499D01*
X166483497Y-57519737D01*
X166629179Y-57459394D01*
X166760289Y-57371789D01*
X166871789Y-57260289D01*
X166959394Y-57129179D01*
X167019737Y-56983497D01*
X167050500Y-56828842D01*
X167050500Y-56671158D01*
X167050500Y-56671155D01*
X167050499Y-56671153D01*
X167019738Y-56516510D01*
X167019737Y-56516503D01*
X167019735Y-56516498D01*
X166959397Y-56370827D01*
X166959390Y-56370814D01*
X166871789Y-56239711D01*
X166871786Y-56239707D01*
X166760292Y-56128213D01*
X166760288Y-56128210D01*
X166629185Y-56040609D01*
X166629172Y-56040602D01*
X166483501Y-55980264D01*
X166483491Y-55980261D01*
X166328151Y-55949362D01*
X166266241Y-55916977D01*
X166264662Y-55915426D01*
X166086217Y-55736981D01*
X166086216Y-55736980D01*
X165999404Y-55686860D01*
X165999404Y-55686859D01*
X165999400Y-55686858D01*
X165949285Y-55657923D01*
X165796557Y-55616999D01*
X165638443Y-55616999D01*
X165630847Y-55616999D01*
X165630831Y-55617000D01*
X160443219Y-55617000D01*
X160376180Y-55597315D01*
X160332735Y-55549295D01*
X160312552Y-55509685D01*
X160312551Y-55509684D01*
X160187609Y-55337713D01*
X160037292Y-55187396D01*
X159872704Y-55067816D01*
X159830040Y-55012489D01*
X159824061Y-54942876D01*
X159856666Y-54881080D01*
X159872699Y-54867186D01*
X160037292Y-54747604D01*
X160187604Y-54597292D01*
X160187606Y-54597288D01*
X160187609Y-54597286D01*
X160312548Y-54425320D01*
X160312547Y-54425320D01*
X160312551Y-54425316D01*
X160409057Y-54235912D01*
X160474746Y-54033743D01*
X160508000Y-53823787D01*
X160508000Y-53611213D01*
X160474746Y-53401257D01*
X160409057Y-53199088D01*
X160312551Y-53009684D01*
X160312549Y-53009681D01*
X160312548Y-53009679D01*
X160187609Y-52837713D01*
X160037286Y-52687390D01*
X159865320Y-52562451D01*
X159759515Y-52508541D01*
X159700704Y-52478575D01*
X159649909Y-52430602D01*
X159633000Y-52368091D01*
X159633000Y-51167596D01*
X159652685Y-51100557D01*
X159669310Y-51079924D01*
X159821856Y-50927378D01*
X159883175Y-50893896D01*
X159952866Y-50898880D01*
G37*
%TD.AperFunction*%
%TA.AperFunction,Conductor*%
G36*
X169742539Y-61737185D02*
G01*
X169788294Y-61789989D01*
X169799500Y-61841500D01*
X169799500Y-62093500D01*
X169779815Y-62160539D01*
X169727011Y-62206294D01*
X169675500Y-62217500D01*
X169654146Y-62217500D01*
X169692630Y-62150843D01*
X169725000Y-62030035D01*
X169725000Y-61904965D01*
X169692630Y-61784157D01*
X169654146Y-61717500D01*
X169675500Y-61717500D01*
X169742539Y-61737185D01*
G37*
%TD.AperFunction*%
%TA.AperFunction,Conductor*%
G36*
X171307370Y-61784157D02*
G01*
X171275000Y-61904965D01*
X171275000Y-62030035D01*
X171307370Y-62150843D01*
X171345854Y-62217500D01*
X171124500Y-62217500D01*
X171057461Y-62197815D01*
X171011706Y-62145011D01*
X171000500Y-62093500D01*
X171000500Y-61841500D01*
X171020185Y-61774461D01*
X171072989Y-61728706D01*
X171124500Y-61717500D01*
X171345854Y-61717500D01*
X171307370Y-61784157D01*
G37*
%TD.AperFunction*%
%TA.AperFunction,Conductor*%
G36*
X177756140Y-30390659D02*
G01*
X177831481Y-30399169D01*
X177846659Y-30400884D01*
X177846695Y-30400888D01*
X177873822Y-30407094D01*
X177953197Y-30434937D01*
X177978254Y-30447035D01*
X178055369Y-30495625D01*
X178066713Y-30503698D01*
X183748966Y-35049500D01*
X183756592Y-35055601D01*
X183766926Y-35064864D01*
X183831027Y-35129142D01*
X183848283Y-35150832D01*
X183892786Y-35221811D01*
X183904793Y-35246794D01*
X183932415Y-35325880D01*
X183938572Y-35352902D01*
X183948722Y-35443110D01*
X183949500Y-35456975D01*
X183949500Y-68630699D01*
X183929815Y-68697738D01*
X183913181Y-68718380D01*
X183279005Y-69352556D01*
X183217682Y-69386041D01*
X183191324Y-69388875D01*
X152708676Y-69388875D01*
X152641637Y-69369190D01*
X152620995Y-69352556D01*
X151986819Y-68718380D01*
X151953334Y-68657057D01*
X151950500Y-68630699D01*
X151950500Y-66923798D01*
X156949498Y-66923798D01*
X156949499Y-66923801D01*
X156990423Y-67076529D01*
X156990424Y-67076531D01*
X156990423Y-67076531D01*
X157002411Y-67097293D01*
X157002412Y-67097295D01*
X157069475Y-67213453D01*
X157069481Y-67213461D01*
X157188349Y-67332329D01*
X157188355Y-67332334D01*
X157820395Y-67964374D01*
X157820405Y-67964385D01*
X157824735Y-67968715D01*
X157824736Y-67968716D01*
X157936540Y-68080520D01*
X158023351Y-68130639D01*
X158023353Y-68130641D01*
X158073469Y-68159576D01*
X158073471Y-68159577D01*
X158226198Y-68200500D01*
X158226199Y-68200500D01*
X165282177Y-68200500D01*
X165282193Y-68200501D01*
X165289789Y-68200501D01*
X165447900Y-68200501D01*
X165447903Y-68200501D01*
X165600631Y-68159577D01*
X165650750Y-68130639D01*
X165737562Y-68080520D01*
X165849366Y-67968716D01*
X165849366Y-67968714D01*
X165859574Y-67958507D01*
X165859576Y-67958504D01*
X170520760Y-63297319D01*
X170582079Y-63263837D01*
X170651771Y-63268821D01*
X170674975Y-63281889D01*
X170675509Y-63281025D01*
X170830875Y-63376856D01*
X170830880Y-63376858D01*
X170997302Y-63432005D01*
X170997309Y-63432006D01*
X171100019Y-63442499D01*
X171499999Y-63442499D01*
X171500000Y-63442498D01*
X171500000Y-62371645D01*
X171566657Y-62410130D01*
X171687465Y-62442500D01*
X171812535Y-62442500D01*
X171933343Y-62410130D01*
X172000000Y-62371645D01*
X172000000Y-63442499D01*
X172399972Y-63442499D01*
X172399986Y-63442498D01*
X172502697Y-63432005D01*
X172669119Y-63376858D01*
X172669124Y-63376856D01*
X172818345Y-63284815D01*
X172942315Y-63160845D01*
X173034356Y-63011624D01*
X173034358Y-63011619D01*
X173089505Y-62845197D01*
X173089506Y-62845190D01*
X173099999Y-62742486D01*
X173100000Y-62742473D01*
X173100000Y-62217500D01*
X172154146Y-62217500D01*
X172192630Y-62150843D01*
X172225000Y-62030035D01*
X172225000Y-61904965D01*
X172192630Y-61784157D01*
X172154146Y-61717500D01*
X173099999Y-61717500D01*
X173099999Y-61192528D01*
X173099998Y-61192513D01*
X173089505Y-61089802D01*
X173034358Y-60923380D01*
X173034356Y-60923375D01*
X172942315Y-60774154D01*
X172818345Y-60650184D01*
X172669124Y-60558143D01*
X172669119Y-60558141D01*
X172502697Y-60502994D01*
X172502690Y-60502993D01*
X172399986Y-60492500D01*
X172000000Y-60492500D01*
X172000000Y-61563354D01*
X171933343Y-61524870D01*
X171812535Y-61492500D01*
X171687465Y-61492500D01*
X171566657Y-61524870D01*
X171500000Y-61563354D01*
X171500000Y-60492500D01*
X171100028Y-60492500D01*
X171100012Y-60492501D01*
X170997302Y-60502994D01*
X170830880Y-60558141D01*
X170830875Y-60558143D01*
X170675509Y-60653975D01*
X170674158Y-60651784D01*
X170620512Y-60673406D01*
X170551875Y-60660342D01*
X170520758Y-60637676D01*
X170213936Y-60330855D01*
X170213934Y-60330852D01*
X170095063Y-60211981D01*
X170095062Y-60211980D01*
X170008250Y-60161860D01*
X170008250Y-60161859D01*
X170008246Y-60161858D01*
X169958131Y-60132923D01*
X169805403Y-60091999D01*
X169647289Y-60091999D01*
X169639693Y-60091999D01*
X169639677Y-60092000D01*
X169499097Y-60092000D01*
X169432058Y-60072315D01*
X169386303Y-60019511D01*
X169376359Y-59950353D01*
X169405384Y-59886797D01*
X169411416Y-59880319D01*
X170257996Y-59033739D01*
X173258506Y-56033227D01*
X173258511Y-56033224D01*
X173268714Y-56023020D01*
X173268716Y-56023020D01*
X173380520Y-55911216D01*
X173459577Y-55774284D01*
X173500500Y-55621557D01*
X173500500Y-54464783D01*
X173520185Y-54397744D01*
X173572989Y-54351989D01*
X173642147Y-54342045D01*
X173705703Y-54371070D01*
X173712181Y-54377102D01*
X175055681Y-55720602D01*
X175089166Y-55781925D01*
X175092000Y-55808283D01*
X175092000Y-64855830D01*
X175091999Y-64855848D01*
X175091999Y-65021554D01*
X175091998Y-65021554D01*
X175132923Y-65174285D01*
X175140493Y-65187396D01*
X175140494Y-65187398D01*
X175211977Y-65311212D01*
X175211981Y-65311217D01*
X175330849Y-65430085D01*
X175330855Y-65430090D01*
X175539397Y-65638632D01*
X175572882Y-65699955D01*
X175569647Y-65764631D01*
X175525253Y-65901260D01*
X175492000Y-66111213D01*
X175492000Y-66323786D01*
X175525253Y-66533739D01*
X175590944Y-66735914D01*
X175687451Y-66925320D01*
X175812390Y-67097286D01*
X175962713Y-67247609D01*
X176134679Y-67372548D01*
X176134681Y-67372549D01*
X176134684Y-67372551D01*
X176324088Y-67469057D01*
X176526257Y-67534746D01*
X176736213Y-67568000D01*
X176736214Y-67568000D01*
X177198786Y-67568000D01*
X177198787Y-67568000D01*
X177408743Y-67534746D01*
X177610912Y-67469057D01*
X177800316Y-67372551D01*
X177822289Y-67356586D01*
X177972286Y-67247609D01*
X177972288Y-67247606D01*
X177972292Y-67247604D01*
X178122604Y-67097292D01*
X178122606Y-67097288D01*
X178122609Y-67097286D01*
X178231586Y-66947289D01*
X178247551Y-66925316D01*
X178344057Y-66735912D01*
X178409746Y-66533743D01*
X178443000Y-66323787D01*
X178443000Y-66111213D01*
X178409746Y-65901257D01*
X178344057Y-65699088D01*
X178247551Y-65509684D01*
X178247549Y-65509681D01*
X178247548Y-65509679D01*
X178122609Y-65337713D01*
X177972292Y-65187396D01*
X177919656Y-65149154D01*
X177807704Y-65067816D01*
X177765040Y-65012489D01*
X177759061Y-64942876D01*
X177791666Y-64881080D01*
X177807699Y-64867186D01*
X177972292Y-64747604D01*
X178122604Y-64597292D01*
X178122606Y-64597288D01*
X178122609Y-64597286D01*
X178247548Y-64425320D01*
X178247547Y-64425320D01*
X178247551Y-64425316D01*
X178344057Y-64235912D01*
X178409746Y-64033743D01*
X178443000Y-63823787D01*
X178443000Y-63611213D01*
X178409746Y-63401257D01*
X178344057Y-63199088D01*
X178247551Y-63009684D01*
X178247549Y-63009681D01*
X178247548Y-63009679D01*
X178122609Y-62837713D01*
X177972292Y-62687396D01*
X177807704Y-62567816D01*
X177765040Y-62512489D01*
X177759061Y-62442876D01*
X177791666Y-62381080D01*
X177807699Y-62367186D01*
X177972292Y-62247604D01*
X178122604Y-62097292D01*
X178122606Y-62097288D01*
X178122609Y-62097286D01*
X178247548Y-61925320D01*
X178247547Y-61925320D01*
X178247551Y-61925316D01*
X178344057Y-61735912D01*
X178409746Y-61533743D01*
X178443000Y-61323787D01*
X178443000Y-61111213D01*
X178409746Y-60901257D01*
X178344057Y-60699088D01*
X178247551Y-60509684D01*
X178247549Y-60509681D01*
X178247548Y-60509679D01*
X178122609Y-60337713D01*
X177972292Y-60187396D01*
X177937143Y-60161859D01*
X177807704Y-60067816D01*
X177765040Y-60012489D01*
X177759061Y-59942876D01*
X177791666Y-59881080D01*
X177807699Y-59867186D01*
X177972292Y-59747604D01*
X178122604Y-59597292D01*
X178122606Y-59597288D01*
X178122609Y-59597286D01*
X178247548Y-59425320D01*
X178247547Y-59425320D01*
X178247551Y-59425316D01*
X178344057Y-59235912D01*
X178409746Y-59033743D01*
X178443000Y-58823787D01*
X178443000Y-58611213D01*
X178409746Y-58401257D01*
X178344057Y-58199088D01*
X178247551Y-58009684D01*
X178247549Y-58009681D01*
X178247548Y-58009679D01*
X178122609Y-57837713D01*
X177972292Y-57687396D01*
X177807704Y-57567816D01*
X177765040Y-57512489D01*
X177759061Y-57442876D01*
X177791666Y-57381080D01*
X177807699Y-57367186D01*
X177972292Y-57247604D01*
X178122604Y-57097292D01*
X178122606Y-57097288D01*
X178122609Y-57097286D01*
X178247548Y-56925320D01*
X178247547Y-56925320D01*
X178247551Y-56925316D01*
X178344057Y-56735912D01*
X178409746Y-56533743D01*
X178443000Y-56323787D01*
X178443000Y-56111213D01*
X178409746Y-55901257D01*
X178344057Y-55699088D01*
X178247551Y-55509684D01*
X178247549Y-55509681D01*
X178247548Y-55509679D01*
X178122609Y-55337713D01*
X177983794Y-55198898D01*
X177950309Y-55137575D01*
X177955293Y-55067883D01*
X177997165Y-55011950D01*
X178006379Y-55005678D01*
X178011831Y-55002314D01*
X178011834Y-55002314D01*
X178161156Y-54910212D01*
X178285212Y-54786156D01*
X178377314Y-54636834D01*
X178432499Y-54470297D01*
X178443000Y-54367509D01*
X178442999Y-53067492D01*
X178432499Y-52964703D01*
X178377314Y-52798166D01*
X178285212Y-52648844D01*
X178161156Y-52524788D01*
X178043146Y-52451999D01*
X178011836Y-52432687D01*
X178011831Y-52432685D01*
X177989116Y-52425158D01*
X177845297Y-52377501D01*
X177845295Y-52377500D01*
X177742510Y-52367000D01*
X176192498Y-52367000D01*
X176192481Y-52367001D01*
X176089703Y-52377500D01*
X176089700Y-52377501D01*
X175923168Y-52432685D01*
X175923163Y-52432687D01*
X175773842Y-52524789D01*
X175649789Y-52648842D01*
X175557687Y-52798163D01*
X175557686Y-52798166D01*
X175502501Y-52964703D01*
X175502501Y-52964704D01*
X175502500Y-52964704D01*
X175492000Y-53067483D01*
X175492000Y-53593403D01*
X175472315Y-53660442D01*
X175419511Y-53706197D01*
X175350353Y-53716141D01*
X175286797Y-53687116D01*
X175280319Y-53681084D01*
X167482445Y-45883210D01*
X167448960Y-45821887D01*
X167446126Y-45795529D01*
X167446126Y-45779764D01*
X167465811Y-45712725D01*
X167467024Y-45710873D01*
X167555016Y-45579184D01*
X167555016Y-45579183D01*
X167555020Y-45579178D01*
X167615363Y-45433496D01*
X167629794Y-45360949D01*
X167662179Y-45299038D01*
X167722894Y-45264464D01*
X167792664Y-45268203D01*
X167798863Y-45270579D01*
X167819727Y-45279221D01*
X167915768Y-45319002D01*
X168070418Y-45349764D01*
X168070421Y-45349765D01*
X168070423Y-45349765D01*
X168228109Y-45349765D01*
X168228110Y-45349764D01*
X168382762Y-45319002D01*
X168505403Y-45268203D01*
X168528437Y-45258662D01*
X168528437Y-45258661D01*
X168528444Y-45258659D01*
X168659554Y-45171054D01*
X168771054Y-45059554D01*
X168858659Y-44928444D01*
X168919002Y-44782762D01*
X168923770Y-44758789D01*
X168945496Y-44649573D01*
X168977881Y-44587662D01*
X169038597Y-44553088D01*
X169067113Y-44549765D01*
X173999801Y-44549765D01*
X174066840Y-44569450D01*
X174112595Y-44622254D01*
X174118460Y-44637764D01*
X174120214Y-44643547D01*
X174180553Y-44789221D01*
X174180560Y-44789234D01*
X174268161Y-44920337D01*
X174268164Y-44920341D01*
X174379658Y-45031835D01*
X174379662Y-45031838D01*
X174510765Y-45119439D01*
X174510778Y-45119446D01*
X174656449Y-45179784D01*
X174656454Y-45179786D01*
X174811104Y-45210548D01*
X174811107Y-45210549D01*
X174811109Y-45210549D01*
X174968795Y-45210549D01*
X174968796Y-45210548D01*
X175123448Y-45179786D01*
X175269130Y-45119443D01*
X175400240Y-45031838D01*
X175511740Y-44920338D01*
X175599345Y-44789228D01*
X175659688Y-44643546D01*
X175690451Y-44488891D01*
X175690451Y-44331207D01*
X175690451Y-44331204D01*
X175690450Y-44331202D01*
X175660029Y-44178268D01*
X175659688Y-44176552D01*
X175640620Y-44130518D01*
X175599348Y-44030876D01*
X175599341Y-44030863D01*
X175511740Y-43899760D01*
X175511737Y-43899756D01*
X175400243Y-43788262D01*
X175400239Y-43788259D01*
X175269136Y-43700658D01*
X175269123Y-43700651D01*
X175123452Y-43640313D01*
X175123442Y-43640310D01*
X174968102Y-43609411D01*
X174906192Y-43577026D01*
X174904613Y-43575475D01*
X174797884Y-43468746D01*
X174797876Y-43468740D01*
X174707396Y-43416502D01*
X174707395Y-43416502D01*
X174687766Y-43405169D01*
X174660952Y-43389688D01*
X174508224Y-43348764D01*
X174350110Y-43348764D01*
X174342514Y-43348764D01*
X174342498Y-43348765D01*
X164797405Y-43348765D01*
X164797389Y-43348764D01*
X164789793Y-43348764D01*
X164631678Y-43348764D01*
X164555314Y-43369226D01*
X164478949Y-43389688D01*
X164478944Y-43389691D01*
X164342025Y-43468740D01*
X164342017Y-43468746D01*
X159895339Y-47915425D01*
X159834016Y-47948910D01*
X159831850Y-47949361D01*
X159676508Y-47980261D01*
X159676498Y-47980264D01*
X159530827Y-48040602D01*
X159530814Y-48040609D01*
X159399711Y-48128210D01*
X159399707Y-48128213D01*
X159288213Y-48239707D01*
X159288210Y-48239711D01*
X159200609Y-48370814D01*
X159200602Y-48370827D01*
X159140264Y-48516498D01*
X159140261Y-48516510D01*
X159109500Y-48671153D01*
X159109500Y-48828846D01*
X159140261Y-48983489D01*
X159140264Y-48983501D01*
X159200602Y-49129172D01*
X159200609Y-49129185D01*
X159288210Y-49260288D01*
X159288213Y-49260292D01*
X159399707Y-49371786D01*
X159399715Y-49371792D01*
X159441486Y-49399703D01*
X159486292Y-49453315D01*
X159494999Y-49522640D01*
X159464845Y-49585667D01*
X159460277Y-49590486D01*
X158663786Y-50386978D01*
X158551981Y-50498782D01*
X158551979Y-50498785D01*
X158501861Y-50585594D01*
X158501859Y-50585596D01*
X158472925Y-50635709D01*
X158472924Y-50635710D01*
X158472923Y-50635715D01*
X158431999Y-50788443D01*
X158431999Y-50788445D01*
X158431999Y-50956546D01*
X158432000Y-50956559D01*
X158432000Y-52368091D01*
X158412315Y-52435130D01*
X158364295Y-52478575D01*
X158330794Y-52495645D01*
X158262125Y-52508541D01*
X158197385Y-52482264D01*
X158157128Y-52425158D01*
X158150500Y-52385160D01*
X158150500Y-46250097D01*
X158170185Y-46183058D01*
X158186819Y-46162416D01*
X158999471Y-45349764D01*
X159864662Y-44484572D01*
X159925983Y-44451089D01*
X159928150Y-44450638D01*
X159986085Y-44439113D01*
X160083497Y-44419737D01*
X160229179Y-44359394D01*
X160271364Y-44331207D01*
X160360875Y-44271398D01*
X160427553Y-44250520D01*
X160429766Y-44250500D01*
X160963331Y-44250500D01*
X160963347Y-44250501D01*
X160970943Y-44250501D01*
X161129054Y-44250501D01*
X161129057Y-44250501D01*
X161281785Y-44209577D01*
X161336020Y-44178264D01*
X161418716Y-44130520D01*
X161530520Y-44018716D01*
X161530520Y-44018714D01*
X161540724Y-44008511D01*
X161540727Y-44008506D01*
X165614664Y-39934571D01*
X165675985Y-39901088D01*
X165678152Y-39900637D01*
X165678841Y-39900500D01*
X165678842Y-39900500D01*
X165833497Y-39869737D01*
X165979179Y-39809394D01*
X166110289Y-39721789D01*
X166221789Y-39610289D01*
X166309394Y-39479179D01*
X166369737Y-39333497D01*
X166400500Y-39178842D01*
X166400500Y-39021158D01*
X166400500Y-39021155D01*
X166400499Y-39021153D01*
X166369738Y-38866510D01*
X166369738Y-38866508D01*
X166369737Y-38866503D01*
X166329017Y-38768195D01*
X166309397Y-38720827D01*
X166309390Y-38720814D01*
X166221789Y-38589711D01*
X166221786Y-38589707D01*
X166110292Y-38478213D01*
X166110288Y-38478210D01*
X165979185Y-38390609D01*
X165979172Y-38390602D01*
X165833501Y-38330264D01*
X165833489Y-38330261D01*
X165678845Y-38299500D01*
X165678842Y-38299500D01*
X165521158Y-38299500D01*
X165521155Y-38299500D01*
X165366510Y-38330261D01*
X165366498Y-38330264D01*
X165220827Y-38390602D01*
X165220814Y-38390609D01*
X165089711Y-38478210D01*
X165089707Y-38478213D01*
X164978213Y-38589707D01*
X164978210Y-38589711D01*
X164890609Y-38720814D01*
X164890602Y-38720827D01*
X164830264Y-38866498D01*
X164830261Y-38866508D01*
X164799362Y-39021848D01*
X164766977Y-39083759D01*
X164765426Y-39085337D01*
X160837584Y-43013181D01*
X160776261Y-43046666D01*
X160749903Y-43049500D01*
X160429766Y-43049500D01*
X160362727Y-43029815D01*
X160360875Y-43028602D01*
X160229185Y-42940609D01*
X160229172Y-42940602D01*
X160083501Y-42880264D01*
X160083489Y-42880261D01*
X159928845Y-42849500D01*
X159928842Y-42849500D01*
X159771158Y-42849500D01*
X159771155Y-42849500D01*
X159616510Y-42880261D01*
X159616498Y-42880264D01*
X159470827Y-42940602D01*
X159470814Y-42940609D01*
X159339711Y-43028210D01*
X159339707Y-43028213D01*
X159228213Y-43139707D01*
X159228210Y-43139711D01*
X159140609Y-43270814D01*
X159140602Y-43270827D01*
X159080264Y-43416498D01*
X159080261Y-43416508D01*
X159049361Y-43571850D01*
X159016976Y-43633761D01*
X159015425Y-43635339D01*
X157069481Y-45581282D01*
X157069479Y-45581284D01*
X157047007Y-45620207D01*
X157037509Y-45636660D01*
X156990423Y-45718215D01*
X156949499Y-45870943D01*
X156949499Y-45870945D01*
X156949499Y-46039046D01*
X156949500Y-46039059D01*
X156949500Y-66758074D01*
X156949499Y-66758092D01*
X156949499Y-66923798D01*
X156949498Y-66923798D01*
X151950500Y-66923798D01*
X151950500Y-45968995D01*
X153799499Y-45968995D01*
X153826418Y-46104322D01*
X153826421Y-46104332D01*
X153879221Y-46231804D01*
X153879228Y-46231817D01*
X153955885Y-46346541D01*
X153955888Y-46346545D01*
X154053454Y-46444111D01*
X154053458Y-46444114D01*
X154168182Y-46520771D01*
X154168195Y-46520778D01*
X154295667Y-46573578D01*
X154295672Y-46573580D01*
X154295676Y-46573580D01*
X154295677Y-46573581D01*
X154431004Y-46600500D01*
X154431007Y-46600500D01*
X154568995Y-46600500D01*
X154660041Y-46582389D01*
X154704328Y-46573580D01*
X154831811Y-46520775D01*
X154946542Y-46444114D01*
X155044114Y-46346542D01*
X155120775Y-46231811D01*
X155173580Y-46104328D01*
X155186563Y-46039059D01*
X155200500Y-45968995D01*
X155200500Y-45831004D01*
X155173581Y-45695677D01*
X155173580Y-45695676D01*
X155173580Y-45695672D01*
X155149136Y-45636659D01*
X155120778Y-45568195D01*
X155120771Y-45568182D01*
X155044114Y-45453458D01*
X155044111Y-45453454D01*
X154946545Y-45355888D01*
X154946541Y-45355885D01*
X154831817Y-45279228D01*
X154831804Y-45279221D01*
X154704332Y-45226421D01*
X154704322Y-45226418D01*
X154568995Y-45199500D01*
X154568993Y-45199500D01*
X154431007Y-45199500D01*
X154431005Y-45199500D01*
X154295677Y-45226418D01*
X154295667Y-45226421D01*
X154168195Y-45279221D01*
X154168182Y-45279228D01*
X154053458Y-45355885D01*
X154053454Y-45355888D01*
X153955888Y-45453454D01*
X153955885Y-45453458D01*
X153879228Y-45568182D01*
X153879221Y-45568195D01*
X153826421Y-45695667D01*
X153826418Y-45695677D01*
X153799500Y-45831004D01*
X153799500Y-45831007D01*
X153799500Y-45968993D01*
X153799500Y-45968995D01*
X153799499Y-45968995D01*
X151950500Y-45968995D01*
X151950500Y-39168995D01*
X153799499Y-39168995D01*
X153826418Y-39304322D01*
X153826421Y-39304332D01*
X153879221Y-39431804D01*
X153879228Y-39431817D01*
X153955885Y-39546541D01*
X153955888Y-39546545D01*
X154053454Y-39644111D01*
X154053458Y-39644114D01*
X154168182Y-39720771D01*
X154168195Y-39720778D01*
X154295667Y-39773578D01*
X154295672Y-39773580D01*
X154295676Y-39773580D01*
X154295677Y-39773581D01*
X154431004Y-39800500D01*
X154431007Y-39800500D01*
X154568995Y-39800500D01*
X154660041Y-39782389D01*
X154704328Y-39773580D01*
X154831811Y-39720775D01*
X154946542Y-39644114D01*
X155044114Y-39546542D01*
X155120775Y-39431811D01*
X155173580Y-39304328D01*
X155200500Y-39168993D01*
X155200500Y-39031007D01*
X155200500Y-39031004D01*
X155173581Y-38895677D01*
X155173580Y-38895676D01*
X155173580Y-38895672D01*
X155161496Y-38866498D01*
X155120778Y-38768195D01*
X155120771Y-38768182D01*
X155044114Y-38653458D01*
X155044111Y-38653454D01*
X154946545Y-38555888D01*
X154946541Y-38555885D01*
X154831817Y-38479228D01*
X154831804Y-38479221D01*
X154704332Y-38426421D01*
X154704322Y-38426418D01*
X154568995Y-38399500D01*
X154568993Y-38399500D01*
X154431007Y-38399500D01*
X154431005Y-38399500D01*
X154295677Y-38426418D01*
X154295667Y-38426421D01*
X154168195Y-38479221D01*
X154168182Y-38479228D01*
X154053458Y-38555885D01*
X154053454Y-38555888D01*
X153955888Y-38653454D01*
X153955885Y-38653458D01*
X153879228Y-38768182D01*
X153879221Y-38768195D01*
X153826421Y-38895667D01*
X153826418Y-38895677D01*
X153799500Y-39031004D01*
X153799500Y-39031007D01*
X153799500Y-39168993D01*
X153799500Y-39168995D01*
X153799499Y-39168995D01*
X151950500Y-39168995D01*
X151950500Y-36456504D01*
X162680000Y-36456504D01*
X162680000Y-36855000D01*
X163380000Y-36855000D01*
X163380000Y-37355000D01*
X162680000Y-37355000D01*
X162680000Y-37753495D01*
X162718427Y-37946681D01*
X162718430Y-37946693D01*
X162793807Y-38128671D01*
X162793814Y-38128684D01*
X162903248Y-38292462D01*
X162903251Y-38292466D01*
X163042533Y-38431748D01*
X163042537Y-38431751D01*
X163206315Y-38541185D01*
X163206328Y-38541192D01*
X163388308Y-38616569D01*
X163430000Y-38624862D01*
X163430000Y-37821988D01*
X163439940Y-37839205D01*
X163495795Y-37895060D01*
X163564204Y-37934556D01*
X163640504Y-37955000D01*
X163719496Y-37955000D01*
X163795796Y-37934556D01*
X163864205Y-37895060D01*
X163920060Y-37839205D01*
X163930000Y-37821988D01*
X163930000Y-38624862D01*
X163971690Y-38616569D01*
X163971692Y-38616569D01*
X164153671Y-38541192D01*
X164153684Y-38541185D01*
X164317462Y-38431751D01*
X164317466Y-38431748D01*
X164456748Y-38292466D01*
X164456751Y-38292462D01*
X164566185Y-38128684D01*
X164566192Y-38128671D01*
X164641569Y-37946693D01*
X164641572Y-37946681D01*
X164679999Y-37753495D01*
X164680000Y-37753492D01*
X164680000Y-37355000D01*
X163980000Y-37355000D01*
X163980000Y-36855000D01*
X164518216Y-36855000D01*
X164585255Y-36874685D01*
X164625602Y-36916999D01*
X164649485Y-36958365D01*
X164756635Y-37065515D01*
X164887865Y-37141281D01*
X165034234Y-37180500D01*
X165034236Y-37180500D01*
X165185764Y-37180500D01*
X165185766Y-37180500D01*
X165332135Y-37141281D01*
X165463365Y-37065515D01*
X165570515Y-36958365D01*
X165646281Y-36827135D01*
X165685500Y-36680766D01*
X165685500Y-36529234D01*
X170314500Y-36529234D01*
X170314500Y-36680765D01*
X170353719Y-36827136D01*
X170369807Y-36855000D01*
X170429485Y-36958365D01*
X170536635Y-37065515D01*
X170667865Y-37141281D01*
X170814234Y-37180500D01*
X170814236Y-37180500D01*
X170965763Y-37180500D01*
X170965766Y-37180500D01*
X171112135Y-37141281D01*
X171243365Y-37065515D01*
X171350515Y-36958365D01*
X171374397Y-36916999D01*
X171424964Y-36868784D01*
X171481784Y-36855000D01*
X172020000Y-36855000D01*
X172020000Y-37355000D01*
X171320000Y-37355000D01*
X171320000Y-37753495D01*
X171358427Y-37946681D01*
X171358430Y-37946693D01*
X171433807Y-38128671D01*
X171433814Y-38128684D01*
X171543248Y-38292462D01*
X171543251Y-38292466D01*
X171682533Y-38431748D01*
X171682537Y-38431751D01*
X171846315Y-38541185D01*
X171846328Y-38541192D01*
X172028308Y-38616569D01*
X172070000Y-38624862D01*
X172070000Y-37821988D01*
X172079940Y-37839205D01*
X172135795Y-37895060D01*
X172204204Y-37934556D01*
X172280504Y-37955000D01*
X172359496Y-37955000D01*
X172435796Y-37934556D01*
X172504205Y-37895060D01*
X172560060Y-37839205D01*
X172570000Y-37821988D01*
X172570000Y-38624862D01*
X172611690Y-38616569D01*
X172611692Y-38616569D01*
X172793671Y-38541192D01*
X172793684Y-38541185D01*
X172957462Y-38431751D01*
X172957466Y-38431748D01*
X173096748Y-38292466D01*
X173096751Y-38292462D01*
X173206185Y-38128684D01*
X173206192Y-38128671D01*
X173281569Y-37946693D01*
X173281572Y-37946681D01*
X173319999Y-37753495D01*
X173320000Y-37753492D01*
X173320000Y-37355000D01*
X172620000Y-37355000D01*
X172620000Y-36855000D01*
X173320000Y-36855000D01*
X173320000Y-36648209D01*
X175369500Y-36648209D01*
X175369500Y-37011790D01*
X175405137Y-37373630D01*
X175476064Y-37730212D01*
X175476067Y-37730223D01*
X175581614Y-38078165D01*
X175602540Y-38128684D01*
X175714715Y-38399500D01*
X175720754Y-38414078D01*
X175720756Y-38414083D01*
X175892140Y-38734720D01*
X175892151Y-38734738D01*
X176094140Y-39037035D01*
X176094150Y-39037049D01*
X176324807Y-39318106D01*
X176581893Y-39575192D01*
X176581898Y-39575196D01*
X176581899Y-39575197D01*
X176862956Y-39805854D01*
X177165268Y-40007853D01*
X177165277Y-40007858D01*
X177165279Y-40007859D01*
X177485916Y-40179243D01*
X177485918Y-40179243D01*
X177485924Y-40179247D01*
X177821836Y-40318386D01*
X178169767Y-40423930D01*
X178169773Y-40423931D01*
X178169776Y-40423932D01*
X178169787Y-40423935D01*
X178526369Y-40494862D01*
X178888206Y-40530500D01*
X178888209Y-40530500D01*
X179251791Y-40530500D01*
X179251794Y-40530500D01*
X179613631Y-40494862D01*
X179683045Y-40481054D01*
X179970212Y-40423935D01*
X179970223Y-40423932D01*
X179970223Y-40423931D01*
X179970233Y-40423930D01*
X180318164Y-40318386D01*
X180654076Y-40179247D01*
X180974732Y-40007853D01*
X181277044Y-39805854D01*
X181558101Y-39575197D01*
X181815197Y-39318101D01*
X182045854Y-39037044D01*
X182247853Y-38734732D01*
X182419247Y-38414076D01*
X182558386Y-38078164D01*
X182663930Y-37730233D01*
X182663932Y-37730223D01*
X182663935Y-37730212D01*
X182734862Y-37373630D01*
X182753884Y-37180499D01*
X182770500Y-37011794D01*
X182770500Y-36648206D01*
X182734862Y-36286369D01*
X182727953Y-36251635D01*
X182663935Y-35929787D01*
X182663932Y-35929776D01*
X182663931Y-35929773D01*
X182663930Y-35929767D01*
X182558386Y-35581836D01*
X182419247Y-35245924D01*
X182412671Y-35233622D01*
X182247859Y-34925279D01*
X182247858Y-34925277D01*
X182247853Y-34925268D01*
X182045854Y-34622956D01*
X181815197Y-34341899D01*
X181815196Y-34341898D01*
X181815192Y-34341893D01*
X181558106Y-34084807D01*
X181277049Y-33854150D01*
X181277048Y-33854149D01*
X181277044Y-33854146D01*
X180974732Y-33652147D01*
X180974727Y-33652144D01*
X180974720Y-33652140D01*
X180654083Y-33480756D01*
X180654078Y-33480754D01*
X180318165Y-33341614D01*
X179970223Y-33236067D01*
X179970212Y-33236064D01*
X179613630Y-33165137D01*
X179341111Y-33138296D01*
X179251794Y-33129500D01*
X178888206Y-33129500D01*
X178805679Y-33137628D01*
X178526369Y-33165137D01*
X178169787Y-33236064D01*
X178169776Y-33236067D01*
X177821834Y-33341614D01*
X177485921Y-33480754D01*
X177485916Y-33480756D01*
X177165279Y-33652140D01*
X177165261Y-33652151D01*
X176862964Y-33854140D01*
X176862950Y-33854150D01*
X176581893Y-34084807D01*
X176324807Y-34341893D01*
X176094150Y-34622950D01*
X176094140Y-34622964D01*
X175892151Y-34925261D01*
X175892140Y-34925279D01*
X175720756Y-35245916D01*
X175720754Y-35245921D01*
X175581614Y-35581834D01*
X175476067Y-35929776D01*
X175476064Y-35929787D01*
X175405137Y-36286369D01*
X175369500Y-36648209D01*
X173320000Y-36648209D01*
X173320000Y-36456508D01*
X173319999Y-36456504D01*
X173281572Y-36263318D01*
X173281569Y-36263306D01*
X173206192Y-36081328D01*
X173206185Y-36081315D01*
X173096751Y-35917537D01*
X173096748Y-35917533D01*
X172957466Y-35778251D01*
X172957462Y-35778248D01*
X172793684Y-35668814D01*
X172793671Y-35668807D01*
X172611691Y-35593429D01*
X172611683Y-35593427D01*
X172570000Y-35585135D01*
X172570000Y-36388011D01*
X172560060Y-36370795D01*
X172504205Y-36314940D01*
X172435796Y-36275444D01*
X172359496Y-36255000D01*
X172280504Y-36255000D01*
X172204204Y-36275444D01*
X172135795Y-36314940D01*
X172079940Y-36370795D01*
X172070000Y-36388011D01*
X172070000Y-35585136D01*
X172069999Y-35585135D01*
X172028316Y-35593427D01*
X172028308Y-35593429D01*
X171846328Y-35668807D01*
X171846315Y-35668814D01*
X171682537Y-35778248D01*
X171682533Y-35778251D01*
X171543251Y-35917533D01*
X171543248Y-35917537D01*
X171433814Y-36081315D01*
X171433809Y-36081324D01*
X171429866Y-36090845D01*
X171386023Y-36145247D01*
X171319728Y-36167310D01*
X171252030Y-36150029D01*
X171246597Y-36146351D01*
X171112136Y-36068719D01*
X171038950Y-36049109D01*
X170965766Y-36029500D01*
X170814234Y-36029500D01*
X170667863Y-36068719D01*
X170536635Y-36144485D01*
X170536632Y-36144487D01*
X170429487Y-36251632D01*
X170429485Y-36251635D01*
X170353719Y-36382863D01*
X170314500Y-36529234D01*
X165685500Y-36529234D01*
X165646281Y-36382865D01*
X165570515Y-36251635D01*
X165463365Y-36144485D01*
X165393406Y-36104094D01*
X165332136Y-36068719D01*
X165258950Y-36049109D01*
X165185766Y-36029500D01*
X165034234Y-36029500D01*
X164887863Y-36068719D01*
X164796428Y-36121510D01*
X164756635Y-36144485D01*
X164756633Y-36144486D01*
X164749597Y-36148549D01*
X164748327Y-36146349D01*
X164694995Y-36166960D01*
X164626552Y-36152914D01*
X164576568Y-36104094D01*
X164570131Y-36090838D01*
X164566192Y-36081328D01*
X164566185Y-36081315D01*
X164456751Y-35917537D01*
X164456748Y-35917533D01*
X164317466Y-35778251D01*
X164317462Y-35778248D01*
X164153684Y-35668814D01*
X164153671Y-35668807D01*
X163971691Y-35593429D01*
X163971683Y-35593427D01*
X163930000Y-35585135D01*
X163930000Y-36388011D01*
X163920060Y-36370795D01*
X163864205Y-36314940D01*
X163795796Y-36275444D01*
X163719496Y-36255000D01*
X163640504Y-36255000D01*
X163564204Y-36275444D01*
X163495795Y-36314940D01*
X163439940Y-36370795D01*
X163430000Y-36388011D01*
X163430000Y-35585136D01*
X163429999Y-35585135D01*
X163388316Y-35593427D01*
X163388308Y-35593429D01*
X163206328Y-35668807D01*
X163206315Y-35668814D01*
X163042537Y-35778248D01*
X163042533Y-35778251D01*
X162903251Y-35917533D01*
X162903248Y-35917537D01*
X162793814Y-36081315D01*
X162793807Y-36081328D01*
X162718430Y-36263306D01*
X162718427Y-36263318D01*
X162680000Y-36456504D01*
X151950500Y-36456504D01*
X151950500Y-35456952D01*
X151951277Y-35443092D01*
X151961422Y-35352892D01*
X151967580Y-35325870D01*
X151995201Y-35246786D01*
X152007204Y-35221810D01*
X152051707Y-35150832D01*
X152068963Y-35129144D01*
X152082341Y-35115730D01*
X152133065Y-35064868D01*
X152143379Y-35055624D01*
X152189418Y-35018793D01*
X152189417Y-35018793D01*
X155429778Y-32426504D01*
X162680000Y-32426504D01*
X162680000Y-32675000D01*
X163380000Y-32675000D01*
X163380000Y-33175000D01*
X162680000Y-33175000D01*
X162680000Y-33423495D01*
X162718427Y-33616681D01*
X162718430Y-33616693D01*
X162793807Y-33798671D01*
X162793814Y-33798684D01*
X162903248Y-33962462D01*
X162903251Y-33962466D01*
X163042533Y-34101748D01*
X163042537Y-34101751D01*
X163206315Y-34211185D01*
X163206328Y-34211192D01*
X163388308Y-34286569D01*
X163430000Y-34294862D01*
X163430000Y-33491988D01*
X163439940Y-33509205D01*
X163495795Y-33565060D01*
X163564204Y-33604556D01*
X163640504Y-33625000D01*
X163719496Y-33625000D01*
X163795796Y-33604556D01*
X163864205Y-33565060D01*
X163920060Y-33509205D01*
X163930000Y-33491988D01*
X163930000Y-34294862D01*
X163971690Y-34286569D01*
X163971692Y-34286569D01*
X164153671Y-34211192D01*
X164153684Y-34211185D01*
X164317462Y-34101751D01*
X164317466Y-34101748D01*
X164456748Y-33962466D01*
X164456751Y-33962462D01*
X164566185Y-33798684D01*
X164566192Y-33798671D01*
X164641569Y-33616693D01*
X164641572Y-33616681D01*
X164679999Y-33423495D01*
X164680000Y-33423492D01*
X164680000Y-33175000D01*
X163980000Y-33175000D01*
X163980000Y-32675000D01*
X164680000Y-32675000D01*
X164680000Y-32426508D01*
X164679999Y-32426504D01*
X171320000Y-32426504D01*
X171320000Y-32675000D01*
X172020000Y-32675000D01*
X172020000Y-33175000D01*
X171320000Y-33175000D01*
X171320000Y-33423495D01*
X171358427Y-33616681D01*
X171358430Y-33616693D01*
X171433807Y-33798671D01*
X171433814Y-33798684D01*
X171543248Y-33962462D01*
X171543251Y-33962466D01*
X171682533Y-34101748D01*
X171682537Y-34101751D01*
X171846315Y-34211185D01*
X171846328Y-34211192D01*
X172028308Y-34286569D01*
X172070000Y-34294862D01*
X172070000Y-33491988D01*
X172079940Y-33509205D01*
X172135795Y-33565060D01*
X172204204Y-33604556D01*
X172280504Y-33625000D01*
X172359496Y-33625000D01*
X172435796Y-33604556D01*
X172504205Y-33565060D01*
X172560060Y-33509205D01*
X172570000Y-33491988D01*
X172570000Y-34294862D01*
X172611690Y-34286569D01*
X172611692Y-34286569D01*
X172793671Y-34211192D01*
X172793684Y-34211185D01*
X172957462Y-34101751D01*
X172957466Y-34101748D01*
X173096748Y-33962466D01*
X173096751Y-33962462D01*
X173206185Y-33798684D01*
X173206192Y-33798671D01*
X173281569Y-33616693D01*
X173281572Y-33616681D01*
X173319999Y-33423495D01*
X173320000Y-33423492D01*
X173320000Y-33175000D01*
X172620000Y-33175000D01*
X172620000Y-32675000D01*
X173320000Y-32675000D01*
X173320000Y-32426508D01*
X173319999Y-32426504D01*
X173281572Y-32233318D01*
X173281569Y-32233306D01*
X173206192Y-32051328D01*
X173206185Y-32051315D01*
X173096751Y-31887537D01*
X173096748Y-31887533D01*
X172957466Y-31748251D01*
X172957462Y-31748248D01*
X172793684Y-31638814D01*
X172793671Y-31638807D01*
X172611691Y-31563429D01*
X172611683Y-31563427D01*
X172570000Y-31555135D01*
X172570000Y-32358011D01*
X172560060Y-32340795D01*
X172504205Y-32284940D01*
X172435796Y-32245444D01*
X172359496Y-32225000D01*
X172280504Y-32225000D01*
X172204204Y-32245444D01*
X172135795Y-32284940D01*
X172079940Y-32340795D01*
X172070000Y-32358011D01*
X172070000Y-31555136D01*
X172069999Y-31555135D01*
X172028316Y-31563427D01*
X172028308Y-31563429D01*
X171846328Y-31638807D01*
X171846315Y-31638814D01*
X171682537Y-31748248D01*
X171682533Y-31748251D01*
X171543251Y-31887533D01*
X171543248Y-31887537D01*
X171433814Y-32051315D01*
X171433807Y-32051328D01*
X171358430Y-32233306D01*
X171358427Y-32233318D01*
X171320000Y-32426504D01*
X164679999Y-32426504D01*
X164641572Y-32233318D01*
X164641569Y-32233306D01*
X164566192Y-32051328D01*
X164566185Y-32051315D01*
X164456751Y-31887537D01*
X164456748Y-31887533D01*
X164317466Y-31748251D01*
X164317462Y-31748248D01*
X164153684Y-31638814D01*
X164153671Y-31638807D01*
X163971691Y-31563429D01*
X163971683Y-31563427D01*
X163930000Y-31555135D01*
X163930000Y-32358011D01*
X163920060Y-32340795D01*
X163864205Y-32284940D01*
X163795796Y-32245444D01*
X163719496Y-32225000D01*
X163640504Y-32225000D01*
X163564204Y-32245444D01*
X163495795Y-32284940D01*
X163439940Y-32340795D01*
X163430000Y-32358011D01*
X163430000Y-31555136D01*
X163429999Y-31555135D01*
X163388316Y-31563427D01*
X163388308Y-31563429D01*
X163206328Y-31638807D01*
X163206315Y-31638814D01*
X163042537Y-31748248D01*
X163042533Y-31748251D01*
X162903251Y-31887533D01*
X162903248Y-31887537D01*
X162793814Y-32051315D01*
X162793807Y-32051328D01*
X162718430Y-32233306D01*
X162718427Y-32233318D01*
X162680000Y-32426504D01*
X155429778Y-32426504D01*
X157833303Y-30503684D01*
X157844635Y-30495620D01*
X157921750Y-30447027D01*
X157946801Y-30434931D01*
X158026173Y-30407089D01*
X158053290Y-30400885D01*
X158127894Y-30392459D01*
X158143850Y-30390658D01*
X158157765Y-30389875D01*
X158216674Y-30389875D01*
X177742222Y-30389875D01*
X177756140Y-30390659D01*
G37*
%TD.AperFunction*%
%TD*%
M02*
